# 3ds Max Wavefront OBJ Exporter v0.97b - (c)2007 guruware
# File Created: 03.06.2014 15:30:53

mtllib arrow.mtl

#
# object Pyramid001
#

v  5.5645 8.6201 3.8241
v  -5.5573 8.6201 3.8241
v  0.0036 -9.9141 -0.0518
v  5.5645 8.6201 -3.9276
v  -5.5573 8.6201 -3.9276
v  0.0036 8.6201 -0.0518
# 6 vertices

vn 0.0000 -0.3433 0.9392
vn 0.8856 -0.4644 -0.0000
vn 0.0000 -0.3433 -0.9392
vn -0.8856 -0.4644 -0.0000
vn 0.0000 1.0000 -0.0000
# 5 vertex normals

vt 1.0000 -0.0000 0.0000
vt 0.0000 -0.0000 0.0000
vt 0.5000 1.0000 0.0000
vt 0.7826 -0.0000 0.0000
vt -0.2174 -0.0000 0.0000
vt 1.0000 1.0000 0.0000
vt 0.5000 0.5000 0.0000
vt 0.0000 1.0000 0.0000
vt 1.0000 0.0000 0.0000
vt 0.0000 0.0000 0.0000
# 10 texture coords

g Pyramid001
usemtl Material__25
f 1/1/1 2/2/1 3/3/1 
f 4/4/2 1/5/2 3/3/2 
f 5/1/3 4/2/3 3/3/3 
f 2/4/4 5/5/4 3/3/4 
f 1/6/5 6/7/5 2/8/5 
f 4/9/5 6/7/5 1/6/5 
f 5/10/5 6/7/5 4/9/5 
f 2/8/5 6/7/5 5/10/5 
# 0 polygons - 8 triangles

