# 3ds Max Wavefront OBJ Exporter v0.97b - (c)2007 guruware
# File Created: 20.05.2014 12:43:38

mtllib blender.mtl

#
# object Box001
#

v  -4.9681 0.0000 4.9552
v  -4.9681 0.0000 -8.9131
v  5.0319 0.0000 -8.9131
v  5.0319 0.0000 4.9552
v  -4.9681 6.0000 4.9552
v  5.0319 6.0000 4.9552
v  5.0319 6.0000 -5.0448
v  -4.9681 6.0000 -5.0448
# 8 vertices

vn 0.0000 -1.0000 -0.0000
vn 0.0000 1.0000 -0.0000
vn 0.0000 0.0000 1.0000
vn 1.0000 0.0000 -0.0000
vn 0.0000 0.5419 -0.8405
vn -1.0000 0.0000 -0.0000
# 6 vertex normals

vt 1.0000 0.0000 0.0000
vt 1.0000 1.0000 0.0000
vt 0.0000 1.0000 0.0000
vt 0.0000 0.0000 0.0000
# 4 texture coords

g Box001
usemtl Material__28
f 1/1/1 2/2/1 3/3/1 4/4/1 
f 5/4/2 6/1/2 7/2/2 8/3/2 
f 1/4/3 4/1/3 6/2/3 5/3/3 
f 4/4/4 3/1/4 7/2/4 6/3/4 
f 3/4/5 2/1/5 8/2/5 7/3/5 
f 2/4/6 1/1/6 5/2/6 8/3/6 
# 6 polygons

#
# object Cylinder001
#

v  -0.0334 2.5382 -6.8323
v  1.4987 1.4249 -7.4751
v  1.8460 1.9458 -7.1743
v  1.9666 2.5382 -6.8323
v  0.3139 0.8325 -7.8171
v  0.9666 1.0382 -7.6983
v  -1.0334 1.0382 -7.6983
v  -0.3806 0.8325 -7.8171
v  -1.9127 1.9458 -7.1743
v  -1.5654 1.4249 -7.4751
v  -1.9127 3.1306 -6.4903
v  -2.0334 2.5382 -6.8323
v  -1.0334 4.0382 -5.9662
v  -1.5654 3.6516 -6.1895
v  0.3139 4.2440 -5.8475
v  -0.3807 4.2440 -5.8475
v  1.4987 3.6516 -6.1895
v  0.9666 4.0382 -5.9662
v  1.8460 3.1306 -6.4903
v  1.8460 2.0458 -7.3475
v  1.9666 2.6382 -7.0055
v  1.4987 1.5249 -7.6483
v  0.9666 1.1382 -7.8715
v  0.3139 0.9325 -7.9903
v  -0.3806 0.9325 -7.9903
v  -1.0334 1.1382 -7.8715
v  -1.5654 1.5249 -7.6483
v  -1.9127 2.0458 -7.3475
v  -2.0334 2.6382 -7.0055
v  -1.9127 3.2306 -6.6635
v  -1.5654 3.7516 -6.3627
v  -1.0334 4.1382 -6.1395
v  -0.3807 4.3440 -6.0207
v  0.3139 4.3440 -6.0207
v  0.9666 4.1382 -6.1395
v  1.4987 3.7516 -6.3627
v  1.8460 3.2306 -6.6635
v  1.8460 2.1458 -7.5207
v  1.9666 2.7382 -7.1787
v  1.4987 1.6249 -7.8215
v  0.9666 1.2382 -8.0447
v  0.3139 1.0325 -8.1635
v  -0.3806 1.0325 -8.1635
v  -1.0334 1.2382 -8.0447
v  -1.5654 1.6249 -7.8215
v  -1.9127 2.1458 -7.5207
v  -2.0334 2.7382 -7.1787
v  -1.9127 3.3306 -6.8367
v  -1.5654 3.8516 -6.5359
v  -1.0334 4.2382 -6.3127
v  -0.3807 4.4440 -6.1939
v  0.3139 4.4440 -6.1939
v  0.9666 4.2382 -6.3127
v  1.4987 3.8516 -6.5359
v  1.8460 3.3306 -6.8367
v  1.8460 2.2458 -7.6939
v  1.9666 2.8382 -7.3519
v  1.4987 1.7249 -7.9947
v  0.9666 1.3382 -8.2179
v  0.3139 1.1325 -8.3367
v  -0.3806 1.1325 -8.3367
v  -1.0334 1.3382 -8.2179
v  -1.5654 1.7249 -7.9947
v  -1.9127 2.2458 -7.6939
v  -2.0334 2.8382 -7.3519
v  -1.9127 3.4306 -7.0099
v  -1.5654 3.9516 -6.7091
v  -1.0334 4.3382 -6.4859
v  -0.3807 4.5440 -6.3671
v  0.3139 4.5440 -6.3671
v  0.9666 4.3382 -6.4859
v  1.4987 3.9516 -6.7091
v  1.8460 3.4306 -7.0099
v  1.8460 2.3458 -7.8671
v  1.9666 2.9382 -7.5251
v  1.4987 1.8249 -8.1679
v  0.9666 1.4382 -8.3911
v  0.3139 1.2325 -8.5099
v  -0.3806 1.2325 -8.5099
v  -1.0334 1.4382 -8.3911
v  -1.5654 1.8249 -8.1679
v  -1.9127 2.3458 -7.8671
v  -2.0334 2.9382 -7.5251
v  -1.9127 3.5306 -7.1831
v  -1.5654 4.0516 -6.8823
v  -1.0334 4.4382 -6.6591
v  -0.3807 4.6440 -6.5403
v  0.3139 4.6440 -6.5403
v  0.9666 4.4382 -6.6591
v  1.4987 4.0516 -6.8823
v  1.8460 3.5306 -7.1831
v  1.8460 2.4458 -8.0403
v  1.9666 3.0382 -7.6983
v  1.4987 1.9249 -8.3411
v  0.9666 1.5382 -8.5643
v  0.3139 1.3325 -8.6831
v  -0.3806 1.3325 -8.6831
v  -1.0334 1.5382 -8.5643
v  -1.5654 1.9249 -8.3411
v  -1.9127 2.4458 -8.0403
v  -2.0334 3.0382 -7.6983
v  -1.9127 3.6306 -7.3563
v  -1.5654 4.1516 -7.0555
v  -1.0334 4.5382 -6.8323
v  -0.3807 4.7440 -6.7135
v  0.3139 4.7440 -6.7135
v  0.9666 4.5382 -6.8323
v  1.4987 4.1516 -7.0555
v  1.8460 3.6306 -7.3563
v  -0.0334 3.0382 -7.6983
# 110 vertices

vn 0.0000 -0.5000 0.8660
vn 1.0000 0.0000 0.0000
vn 0.9397 -0.2962 -0.1710
vn 0.7660 -0.5567 -0.3214
vn 0.5000 -0.7500 -0.4330
vn 0.1736 -0.8529 -0.4924
vn -0.1736 -0.8529 -0.4924
vn -0.5000 -0.7500 -0.4330
vn -0.7660 -0.5567 -0.3214
vn -0.9397 -0.2962 -0.1710
vn -1.0000 -0.0000 -0.0000
vn -0.9397 0.2962 0.1710
vn -0.7660 0.5567 0.3214
vn -0.5000 0.7500 0.4330
vn -0.1736 0.8529 0.4924
vn 0.1736 0.8529 0.4924
vn 0.5000 0.7500 0.4330
vn 0.7660 0.5567 0.3214
vn 0.9397 0.2962 0.1710
vn 0.0000 0.5000 -0.8660
# 20 vertex normals

vt 0.5000 0.0000 0.0000
vt 0.8611 0.0000 1.0000
vt 0.8056 0.0000 1.0000
vt 0.7500 0.0000 1.0000
vt 0.9722 0.0000 1.0000
vt 0.9167 0.0000 1.0000
vt 0.0833 0.0000 1.0000
vt 0.0278 0.0000 1.0000
vt -0.0278 0.0000 1.0000
vt 0.1944 0.0000 1.0000
vt 0.1389 0.0000 1.0000
vt 0.3056 0.0000 1.0000
vt 0.2500 0.0000 1.0000
vt 0.4167 0.0000 1.0000
vt 0.3611 0.0000 1.0000
vt 0.5278 0.0000 1.0000
vt 0.4722 0.0000 1.0000
vt 0.6389 0.0000 1.0000
vt 0.5833 0.0000 1.0000
vt 0.6944 0.0000 1.0000
vt 0.8056 0.2000 1.0000
vt 0.7500 0.2000 1.0000
vt 0.8611 0.2000 1.0000
vt 0.9167 0.2000 1.0000
vt 0.9722 0.2000 1.0000
vt 0.0278 0.2000 1.0000
vt -0.0278 0.2000 1.0000
vt 0.0833 0.2000 1.0000
vt 0.1389 0.2000 1.0000
vt 0.1944 0.2000 1.0000
vt 0.2500 0.2000 1.0000
vt 0.3056 0.2000 1.0000
vt 0.3611 0.2000 1.0000
vt 0.4167 0.2000 1.0000
vt 0.4722 0.2000 1.0000
vt 0.5278 0.2000 1.0000
vt 0.5833 0.2000 1.0000
vt 0.6389 0.2000 1.0000
vt 0.6944 0.2000 1.0000
vt 0.8056 0.4000 1.0000
vt 0.7500 0.4000 1.0000
vt 0.8611 0.4000 1.0000
vt 0.9167 0.4000 1.0000
vt 0.9722 0.4000 1.0000
vt 0.0278 0.4000 1.0000
vt -0.0278 0.4000 1.0000
vt 0.0833 0.4000 1.0000
vt 0.1389 0.4000 1.0000
vt 0.1944 0.4000 1.0000
vt 0.2500 0.4000 1.0000
vt 0.3056 0.4000 1.0000
vt 0.3611 0.4000 1.0000
vt 0.4167 0.4000 1.0000
vt 0.4722 0.4000 1.0000
vt 0.5278 0.4000 1.0000
vt 0.5833 0.4000 1.0000
vt 0.6389 0.4000 1.0000
vt 0.6944 0.4000 1.0000
vt 0.8056 0.6000 1.0000
vt 0.7500 0.6000 1.0000
vt 0.8611 0.6000 1.0000
vt 0.9167 0.6000 1.0000
vt 0.9722 0.6000 1.0000
vt 0.0278 0.6000 1.0000
vt -0.0278 0.6000 1.0000
vt 0.0833 0.6000 1.0000
vt 0.1389 0.6000 1.0000
vt 0.1944 0.6000 1.0000
vt 0.2500 0.6000 1.0000
vt 0.3056 0.6000 1.0000
vt 0.3611 0.6000 1.0000
vt 0.4167 0.6000 1.0000
vt 0.4722 0.6000 1.0000
vt 0.5278 0.6000 1.0000
vt 0.5833 0.6000 1.0000
vt 0.6389 0.6000 1.0000
vt 0.6944 0.6000 1.0000
vt 0.8056 0.8000 1.0000
vt 0.7500 0.8000 1.0000
vt 0.8611 0.8000 1.0000
vt 0.9167 0.8000 1.0000
vt 0.9722 0.8000 1.0000
vt 0.0278 0.8000 1.0000
vt -0.0278 0.8000 1.0000
vt 0.0833 0.8000 1.0000
vt 0.1389 0.8000 1.0000
vt 0.1944 0.8000 1.0000
vt 0.2500 0.8000 1.0000
vt 0.3056 0.8000 1.0000
vt 0.3611 0.8000 1.0000
vt 0.4167 0.8000 1.0000
vt 0.4722 0.8000 1.0000
vt 0.5278 0.8000 1.0000
vt 0.5833 0.8000 1.0000
vt 0.6389 0.8000 1.0000
vt 0.6944 0.8000 1.0000
vt 0.8056 1.0000 1.0000
vt 0.7500 1.0000 1.0000
vt 0.8611 1.0000 1.0000
vt 0.9167 1.0000 1.0000
vt 0.9722 1.0000 1.0000
vt 0.0278 1.0000 1.0000
vt -0.0278 1.0000 1.0000
vt 0.0833 1.0000 1.0000
vt 0.1389 1.0000 1.0000
vt 0.1944 1.0000 1.0000
vt 0.2500 1.0000 1.0000
vt 0.3056 1.0000 1.0000
vt 0.3611 1.0000 1.0000
vt 0.4167 1.0000 1.0000
vt 0.4722 1.0000 1.0000
vt 0.5278 1.0000 1.0000
vt 0.5833 1.0000 1.0000
vt 0.6389 1.0000 1.0000
vt 0.6944 1.0000 1.0000
vt 0.5000 1.0000 0.0000
vt -0.0197 1.0000 0.8794
# 117 texture coords

g Cylinder001
usemtl Material__29
f 9/5/7 10/6/7 11/7/7 12/8/7 
f 9/5/7 13/9/7 14/10/7 10/6/7 
f 9/5/7 15/11/7 16/12/7 13/13/7 
f 9/5/7 17/14/7 18/15/7 15/11/7 
f 9/5/7 19/16/7 20/17/7 17/14/7 
f 9/5/7 21/18/7 22/19/7 19/16/7 
f 9/5/7 23/20/7 24/21/7 21/18/7 
f 9/5/7 25/22/7 26/23/7 23/20/7 
f 9/5/7 12/8/7 27/24/7 25/22/7 
f 12/8/8 11/7/9 28/25/9 29/26/8 
f 11/7/9 10/6/10 30/27/10 28/25/9 
f 10/6/10 14/10/11 31/28/11 30/27/10 
f 14/10/11 13/9/12 32/29/12 31/28/11 
f 13/13/12 16/12/13 33/30/13 32/31/12 
f 16/12/13 15/11/14 34/32/14 33/30/13 
f 15/11/14 18/15/15 35/33/15 34/32/14 
f 18/15/15 17/14/16 36/34/16 35/33/15 
f 17/14/16 20/17/17 37/35/17 36/34/16 
f 20/17/17 19/16/18 38/36/18 37/35/17 
f 19/16/18 22/19/19 39/37/19 38/36/18 
f 22/19/19 21/18/20 40/38/20 39/37/19 
f 21/18/20 24/21/21 41/39/21 40/38/20 
f 24/21/21 23/20/22 42/40/22 41/39/21 
f 23/20/22 26/23/23 43/41/23 42/40/22 
f 26/23/23 25/22/24 44/42/24 43/41/23 
f 25/22/24 27/24/25 45/43/25 44/42/24 
f 27/24/25 12/8/8 29/26/8 45/43/25 
f 29/26/8 28/25/9 46/44/9 47/45/8 
f 28/25/9 30/27/10 48/46/10 46/44/9 
f 30/27/10 31/28/11 49/47/11 48/46/10 
f 31/28/11 32/29/12 50/48/12 49/47/11 
f 32/31/12 33/30/13 51/49/13 50/50/12 
f 33/30/13 34/32/14 52/51/14 51/49/13 
f 34/32/14 35/33/15 53/52/15 52/51/14 
f 35/33/15 36/34/16 54/53/16 53/52/15 
f 36/34/16 37/35/17 55/54/17 54/53/16 
f 37/35/17 38/36/18 56/55/18 55/54/17 
f 38/36/18 39/37/19 57/56/19 56/55/18 
f 39/37/19 40/38/20 58/57/20 57/56/19 
f 40/38/20 41/39/21 59/58/21 58/57/20 
f 41/39/21 42/40/22 60/59/22 59/58/21 
f 42/40/22 43/41/23 61/60/23 60/59/22 
f 43/41/23 44/42/24 62/61/24 61/60/23 
f 44/42/24 45/43/25 63/62/25 62/61/24 
f 45/43/25 29/26/8 47/45/8 63/62/25 
f 47/45/8 46/44/9 64/63/9 65/64/8 
f 46/44/9 48/46/10 66/65/10 64/63/9 
f 48/46/10 49/47/11 67/66/11 66/65/10 
f 49/47/11 50/48/12 68/67/12 67/66/11 
f 50/50/12 51/49/13 69/68/13 68/69/12 
f 51/49/13 52/51/14 70/70/14 69/68/13 
f 52/51/14 53/52/15 71/71/15 70/70/14 
f 53/52/15 54/53/16 72/72/16 71/71/15 
f 54/53/16 55/54/17 73/73/17 72/72/16 
f 55/54/17 56/55/18 74/74/18 73/73/17 
f 56/55/18 57/56/19 75/75/19 74/74/18 
f 57/56/19 58/57/20 76/76/20 75/75/19 
f 58/57/20 59/58/21 77/77/21 76/76/20 
f 59/58/21 60/59/22 78/78/22 77/77/21 
f 60/59/22 61/60/23 79/79/23 78/78/22 
f 61/60/23 62/61/24 80/80/24 79/79/23 
f 62/61/24 63/62/25 81/81/25 80/80/24 
f 63/62/25 47/45/8 65/64/8 81/81/25 
f 65/64/8 64/63/9 82/82/9 83/83/8 
f 64/63/9 66/65/10 84/84/10 82/82/9 
f 66/65/10 67/66/11 85/85/11 84/84/10 
f 67/66/11 68/67/12 86/86/12 85/85/11 
f 68/69/12 69/68/13 87/87/13 86/88/12 
f 69/68/13 70/70/14 88/89/14 87/87/13 
f 70/70/14 71/71/15 89/90/15 88/89/14 
f 71/71/15 72/72/16 90/91/16 89/90/15 
f 72/72/16 73/73/17 91/92/17 90/91/16 
f 73/73/17 74/74/18 92/93/18 91/92/17 
f 74/74/18 75/75/19 93/94/19 92/93/18 
f 75/75/19 76/76/20 94/95/20 93/94/19 
f 76/76/20 77/77/21 95/96/21 94/95/20 
f 77/77/21 78/78/22 96/97/22 95/96/21 
f 78/78/22 79/79/23 97/98/23 96/97/22 
f 79/79/23 80/80/24 98/99/24 97/98/23 
f 80/80/24 81/81/25 99/100/25 98/99/24 
f 81/81/25 65/64/8 83/83/8 99/100/25 
f 83/83/8 82/82/9 100/101/9 101/102/8 
f 82/82/9 84/84/10 102/103/10 100/101/9 
f 84/84/10 85/85/11 103/104/11 102/103/10 
f 85/85/11 86/86/12 104/105/12 103/104/11 
f 86/88/12 87/87/13 105/106/13 104/107/12 
f 87/87/13 88/89/14 106/108/14 105/106/13 
f 88/89/14 89/90/15 107/109/15 106/108/14 
f 89/90/15 90/91/16 108/110/16 107/109/15 
f 90/91/16 91/92/17 109/111/17 108/110/16 
f 91/92/17 92/93/18 110/112/18 109/111/17 
f 92/93/18 93/94/19 111/113/19 110/112/18 
f 93/94/19 94/95/20 112/114/20 111/113/19 
f 94/95/20 95/96/21 113/115/21 112/114/20 
f 95/96/21 96/97/22 114/116/22 113/115/21 
f 96/97/22 97/98/23 115/117/23 114/116/22 
f 97/98/23 98/99/24 116/118/24 115/117/23 
f 98/99/24 99/100/25 117/119/25 116/118/24 
f 99/100/25 83/83/8 101/102/8 117/119/25 
f 118/120/26 117/119/26 101/102/26 100/101/26 
f 118/120/26 100/101/26 102/103/26 103/104/26 
f 118/120/26 103/121/26 104/107/26 105/106/26 
f 118/120/26 105/106/26 106/108/26 107/109/26 
f 118/120/26 107/109/26 108/110/26 109/111/26 
f 118/120/26 109/111/26 110/112/26 111/113/26 
f 118/120/26 111/113/26 112/114/26 113/115/26 
f 118/120/26 113/115/26 114/116/26 115/117/26 
f 118/120/26 115/117/26 116/118/26 117/119/26 
# 108 polygons

#
# object Cylinder002
#

v  3.8937 5.4237 -0.0057
v  3.6586 5.4237 -1.3394
v  3.7791 8.4237 -1.3832
v  4.0220 8.4237 -0.0057
v  2.9815 5.4237 -2.5122
v  3.0797 8.4237 -2.5946
v  1.9440 5.4237 -3.3827
v  2.0082 8.4237 -3.4937
v  0.6715 5.4237 -3.8458
v  0.6938 8.4237 -3.9721
v  -0.6828 5.4237 -3.8458
v  -0.7050 8.4237 -3.9721
v  -1.9553 5.4237 -3.3827
v  -2.0194 8.4237 -3.4937
v  -2.9927 5.4237 -2.5122
v  -3.0910 8.4237 -2.5946
v  -3.6698 5.4237 -1.3394
v  -3.7904 8.4237 -1.3832
v  -3.9050 5.4237 -0.0057
v  -4.0333 8.4237 -0.0057
v  -3.6698 5.4237 1.3280
v  -3.7904 8.4237 1.3718
v  -2.9927 5.4237 2.5008
v  -3.0910 8.4237 2.5832
v  -1.9553 5.4237 3.3712
v  -2.0195 8.4237 3.4823
v  -0.6828 5.4237 3.8344
v  -0.7050 8.4237 3.9607
v  0.6715 5.4237 3.8344
v  0.6938 8.4237 3.9607
v  1.9440 5.4237 3.3712
v  2.0082 8.4237 3.4823
v  2.9815 5.4237 2.5008
v  3.0797 8.4237 2.5832
v  3.6586 5.4237 1.3280
v  3.7791 8.4237 1.3718
v  4.0405 11.4237 -1.4784
v  4.3001 11.4237 -0.0057
v  3.2928 11.4237 -2.7734
v  2.1472 11.4237 -3.7346
v  0.7421 11.4237 -4.2461
v  -0.7533 11.4237 -4.2461
v  -2.1585 11.4237 -3.7346
v  -3.3040 11.4237 -2.7734
v  -4.0517 11.4237 -1.4784
v  -4.3114 11.4237 -0.0057
v  -4.0517 11.4237 1.4670
v  -3.3040 11.4237 2.7620
v  -2.1585 11.4237 3.7232
v  -0.7533 11.4237 4.2346
v  0.7421 11.4237 4.2346
v  2.1472 11.4237 3.7232
v  3.2928 11.4237 2.7620
v  4.0405 11.4237 1.4670
v  4.3803 14.4237 -1.6020
v  4.6617 14.4237 -0.0057
v  3.5698 14.4237 -3.0058
v  2.3280 14.4237 -4.0478
v  0.8048 14.4237 -4.6022
v  -0.8161 14.4237 -4.6022
v  -2.3393 14.4237 -4.0478
v  -3.5810 14.4237 -3.0058
v  -4.3915 14.4237 -1.6020
v  -4.6730 14.4237 -0.0057
v  -4.3915 14.4237 1.5906
v  -3.5810 14.4237 2.9944
v  -2.3393 14.4237 4.0363
v  -0.8161 14.4237 4.5907
v  0.8048 14.4237 4.5907
v  2.3280 14.4237 4.0363
v  3.5698 14.4237 2.9944
v  4.3802 14.4237 1.5906
v  4.7350 17.4237 -1.7312
v  5.0392 17.4237 -0.0057
v  3.8590 17.4237 -3.2485
v  2.5168 17.4237 -4.3747
v  0.8704 17.4237 -4.9739
v  -0.8817 17.4237 -4.9739
v  -2.5281 17.4237 -4.3747
v  -3.8702 17.4237 -3.2485
v  -4.7463 17.4237 -1.7312
v  -5.0505 17.4237 -0.0057
v  -4.7463 17.4237 1.7197
v  -3.8702 17.4237 3.2371
v  -2.5281 17.4237 4.3633
v  -0.8817 17.4237 4.9625
v  0.8704 17.4237 4.9625
v  2.5168 17.4237 4.3633
v  3.8590 17.4237 3.2371
v  4.7350 17.4237 1.7197
v  5.0403 20.4237 -1.8423
v  5.3641 20.4237 -0.0057
v  4.1078 20.4237 -3.4573
v  2.6792 20.4237 -4.6560
v  0.9268 20.4237 -5.2938
v  -0.9381 20.4237 -5.2938
v  -2.6905 20.4237 -4.6560
v  -4.1191 20.4237 -3.4573
v  -5.0515 20.4237 -1.8423
v  -5.3754 20.4237 -0.0057
v  -5.0515 20.4237 1.8308
v  -4.1191 20.4237 3.4459
v  -2.6905 20.4237 4.6446
v  -0.9381 20.4237 5.2824
v  0.9268 20.4237 5.2824
v  2.6792 20.4237 4.6446
v  4.1078 20.4237 3.4459
v  5.0403 20.4237 1.8309
# 108 vertices

vn 0.9991 -0.0427 0.0000
vn 0.9388 -0.0427 -0.3417
vn 0.9375 -0.0677 -0.3412
vn 0.9977 -0.0677 0.0000
vn 0.7653 -0.0427 -0.6422
vn 0.7643 -0.0677 -0.6413
vn 0.4995 -0.0427 -0.8652
vn 0.4989 -0.0677 -0.8640
vn 0.1735 -0.0427 -0.9839
vn 0.1732 -0.0677 -0.9825
vn -0.1735 -0.0427 -0.9839
vn -0.1732 -0.0677 -0.9825
vn -0.4995 -0.0427 -0.8652
vn -0.4989 -0.0677 -0.8640
vn -0.7653 -0.0427 -0.6422
vn -0.7643 -0.0677 -0.6413
vn -0.9388 -0.0427 -0.3417
vn -0.9375 -0.0677 -0.3412
vn -0.9991 -0.0427 -0.0000
vn -0.9977 -0.0677 -0.0000
vn -0.9388 -0.0427 0.3417
vn -0.9375 -0.0677 0.3412
vn -0.7653 -0.0427 0.6422
vn -0.7643 -0.0677 0.6413
vn -0.4995 -0.0427 0.8652
vn -0.4989 -0.0677 0.8640
vn -0.1735 -0.0427 0.9839
vn -0.1732 -0.0677 0.9825
vn 0.1735 -0.0427 0.9839
vn 0.1732 -0.0677 0.9825
vn 0.4995 -0.0427 0.8652
vn 0.4989 -0.0677 0.8640
vn 0.7653 -0.0427 0.6422
vn 0.7643 -0.0677 0.6413
vn 0.9388 -0.0427 0.3417
vn 0.9375 -0.0677 0.3412
vn 0.9344 -0.1062 -0.3401
vn 0.9943 -0.1062 0.0000
vn 0.7617 -0.1062 -0.6392
vn 0.4972 -0.1062 -0.8611
vn 0.1727 -0.1062 -0.9792
vn -0.1727 -0.1062 -0.9792
vn -0.4972 -0.1062 -0.8611
vn -0.7617 -0.1062 -0.6392
vn -0.9344 -0.1062 -0.3401
vn -0.9943 -0.1062 -0.0000
vn -0.9344 -0.1062 0.3401
vn -0.7617 -0.1062 0.6392
vn -0.4972 -0.1062 0.8611
vn -0.1727 -0.1062 0.9792
vn 0.1727 -0.1062 0.9792
vn 0.4972 -0.1062 0.8611
vn 0.7617 -0.1062 0.6392
vn 0.9344 -0.1062 0.3401
vn 0.9326 -0.1223 -0.3395
vn 0.9925 -0.1223 0.0000
vn 0.7603 -0.1223 -0.6380
vn 0.4962 -0.1223 -0.8595
vn 0.1723 -0.1223 -0.9774
vn -0.1723 -0.1223 -0.9774
vn -0.4962 -0.1223 -0.8595
vn -0.7603 -0.1223 -0.6380
vn -0.9326 -0.1223 -0.3395
vn -0.9925 -0.1223 -0.0000
vn -0.9326 -0.1223 0.3395
vn -0.7603 -0.1223 0.6380
vn -0.4962 -0.1223 0.8595
vn -0.1723 -0.1223 0.9774
vn 0.1723 -0.1223 0.9774
vn 0.4962 -0.1223 0.8595
vn 0.7603 -0.1223 0.6380
vn 0.9326 -0.1223 0.3395
vn 0.9333 -0.1161 -0.3397
vn 0.9932 -0.1161 0.0000
vn 0.7609 -0.1161 -0.6384
vn 0.4966 -0.1161 -0.8602
vn 0.1725 -0.1161 -0.9781
vn -0.1725 -0.1161 -0.9781
vn -0.4966 -0.1161 -0.8602
vn -0.7609 -0.1161 -0.6384
vn -0.9333 -0.1161 -0.3397
vn -0.9932 -0.1161 0.0000
vn -0.9333 -0.1161 0.3397
vn -0.7609 -0.1161 0.6384
vn -0.4966 -0.1161 0.8602
vn -0.1725 -0.1161 0.9781
vn 0.1725 -0.1161 0.9781
vn 0.4966 -0.1161 0.8602
vn 0.7609 -0.1161 0.6384
vn 0.9333 -0.1161 0.3397
vn 0.9342 -0.1077 -0.3400
vn 0.9942 -0.1077 0.0000
vn 0.7616 -0.1077 -0.6391
vn 0.4971 -0.1077 -0.8610
vn 0.1726 -0.1077 -0.9791
vn -0.1726 -0.1077 -0.9791
vn -0.4971 -0.1077 -0.8610
vn -0.7616 -0.1077 -0.6391
vn -0.9342 -0.1077 -0.3400
vn -0.9942 -0.1077 -0.0000
vn -0.9342 -0.1077 0.3400
vn -0.7616 -0.1077 0.6391
vn -0.4971 -0.1077 0.8610
vn -0.1726 -0.1077 0.9791
vn 0.1726 -0.1077 0.9791
vn 0.4971 -0.1077 0.8610
vn 0.7616 -0.1077 0.6391
vn 0.9342 -0.1077 0.3400
# 108 vertex normals

vt 0.7500 0.0000 1.0000
vt 0.8056 0.0000 1.0000
vt 0.8056 0.2000 1.0000
vt 0.7500 0.2000 1.0000
vt 0.8611 0.0000 1.0000
vt 0.8611 0.2000 1.0000
vt 0.9167 0.0000 1.0000
vt 0.9167 0.2000 1.0000
vt 0.9722 0.0000 1.0000
vt 0.9722 0.2000 1.0000
vt 1.0278 0.0000 1.0000
vt 1.0278 0.2000 1.0000
vt 0.0278 0.0000 1.0000
vt 0.0833 0.0000 1.0000
vt 0.0833 0.2000 1.0000
vt 0.0278 0.2000 1.0000
vt 0.1389 0.0000 1.0000
vt 0.1389 0.2000 1.0000
vt 0.1944 0.0000 1.0000
vt 0.1944 0.2000 1.0000
vt 0.2500 0.0000 1.0000
vt 0.2500 0.2000 1.0000
vt 0.3056 0.0000 1.0000
vt 0.3056 0.2000 1.0000
vt 0.3611 0.0000 1.0000
vt 0.3611 0.2000 1.0000
vt 0.4167 0.0000 1.0000
vt 0.4167 0.2000 1.0000
vt 0.4722 0.0000 1.0000
vt 0.4722 0.2000 1.0000
vt 0.5278 0.0000 1.0000
vt 0.5278 0.2000 1.0000
vt 0.5833 0.0000 1.0000
vt 0.5833 0.2000 1.0000
vt 0.6389 0.0000 1.0000
vt 0.6389 0.2000 1.0000
vt 0.6944 0.0000 1.0000
vt 0.6944 0.2000 1.0000
vt 0.8056 0.4000 1.0000
vt 0.7500 0.4000 1.0000
vt 0.8611 0.4000 1.0000
vt 0.9167 0.4000 1.0000
vt 0.9722 0.4000 1.0000
vt 1.0278 0.4000 1.0000
vt 0.0833 0.4000 1.0000
vt 0.0278 0.4000 1.0000
vt 0.1389 0.4000 1.0000
vt 0.1944 0.4000 1.0000
vt 0.2500 0.4000 1.0000
vt 0.3056 0.4000 1.0000
vt 0.3611 0.4000 1.0000
vt 0.4167 0.4000 1.0000
vt 0.4722 0.4000 1.0000
vt 0.5278 0.4000 1.0000
vt 0.5833 0.4000 1.0000
vt 0.6389 0.4000 1.0000
vt 0.6944 0.4000 1.0000
vt 0.8056 0.6000 1.0000
vt 0.7500 0.6000 1.0000
vt 0.8611 0.6000 1.0000
vt 0.9167 0.6000 1.0000
vt 0.9722 0.6000 1.0000
vt 1.0278 0.6000 1.0000
vt 0.0833 0.6000 1.0000
vt 0.0278 0.6000 1.0000
vt 0.1389 0.6000 1.0000
vt 0.1944 0.6000 1.0000
vt 0.2500 0.6000 1.0000
vt 0.3056 0.6000 1.0000
vt 0.3611 0.6000 1.0000
vt 0.4167 0.6000 1.0000
vt 0.4722 0.6000 1.0000
vt 0.5278 0.6000 1.0000
vt 0.5833 0.6000 1.0000
vt 0.6389 0.6000 1.0000
vt 0.6944 0.6000 1.0000
vt 0.8056 0.8000 1.0000
vt 0.7500 0.8000 1.0000
vt 0.8611 0.8000 1.0000
vt 0.9167 0.8000 1.0000
vt 0.9722 0.8000 1.0000
vt 1.0278 0.8000 1.0000
vt 0.0833 0.8000 1.0000
vt 0.0278 0.8000 1.0000
vt 0.1389 0.8000 1.0000
vt 0.1944 0.8000 1.0000
vt 0.2500 0.8000 1.0000
vt 0.3056 0.8000 1.0000
vt 0.3611 0.8000 1.0000
vt 0.4167 0.8000 1.0000
vt 0.4722 0.8000 1.0000
vt 0.5278 0.8000 1.0000
vt 0.5833 0.8000 1.0000
vt 0.6389 0.8000 1.0000
vt 0.6944 0.8000 1.0000
vt 0.8056 1.0000 1.0000
vt 0.7500 1.0000 1.0000
vt 0.8611 1.0000 1.0000
vt 0.9167 1.0000 1.0000
vt 0.9722 1.0000 1.0000
vt 1.0278 1.0000 1.0000
vt 0.0833 1.0000 1.0000
vt 0.0278 1.0000 1.0000
vt 0.1389 1.0000 1.0000
vt 0.1944 1.0000 1.0000
vt 0.2500 1.0000 1.0000
vt 0.3056 1.0000 1.0000
vt 0.3611 1.0000 1.0000
vt 0.4167 1.0000 1.0000
vt 0.4722 1.0000 1.0000
vt 0.5278 1.0000 1.0000
vt 0.5833 1.0000 1.0000
vt 0.6389 1.0000 1.0000
vt 0.6944 1.0000 1.0000
# 114 texture coords

g Cylinder002
usemtl Material__30
f 119/122/27 120/123/28 121/124/29 122/125/30 
f 120/123/28 123/126/31 124/127/32 121/124/29 
f 123/126/31 125/128/33 126/129/34 124/127/32 
f 125/128/33 127/130/35 128/131/36 126/129/34 
f 127/130/35 129/132/37 130/133/38 128/131/36 
f 129/134/37 131/135/39 132/136/40 130/137/38 
f 131/135/39 133/138/41 134/139/42 132/136/40 
f 133/138/41 135/140/43 136/141/44 134/139/42 
f 135/140/43 137/142/45 138/143/46 136/141/44 
f 137/142/45 139/144/47 140/145/48 138/143/46 
f 139/144/47 141/146/49 142/147/50 140/145/48 
f 141/146/49 143/148/51 144/149/52 142/147/50 
f 143/148/51 145/150/53 146/151/54 144/149/52 
f 145/150/53 147/152/55 148/153/56 146/151/54 
f 147/152/55 149/154/57 150/155/58 148/153/56 
f 149/154/57 151/156/59 152/157/60 150/155/58 
f 151/156/59 153/158/61 154/159/62 152/157/60 
f 153/158/61 119/122/27 122/125/30 154/159/62 
f 122/125/30 121/124/29 155/160/63 156/161/64 
f 121/124/29 124/127/32 157/162/65 155/160/63 
f 124/127/32 126/129/34 158/163/66 157/162/65 
f 126/129/34 128/131/36 159/164/67 158/163/66 
f 128/131/36 130/133/38 160/165/68 159/164/67 
f 130/137/38 132/136/40 161/166/69 160/167/68 
f 132/136/40 134/139/42 162/168/70 161/166/69 
f 134/139/42 136/141/44 163/169/71 162/168/70 
f 136/141/44 138/143/46 164/170/72 163/169/71 
f 138/143/46 140/145/48 165/171/73 164/170/72 
f 140/145/48 142/147/50 166/172/74 165/171/73 
f 142/147/50 144/149/52 167/173/75 166/172/74 
f 144/149/52 146/151/54 168/174/76 167/173/75 
f 146/151/54 148/153/56 169/175/77 168/174/76 
f 148/153/56 150/155/58 170/176/78 169/175/77 
f 150/155/58 152/157/60 171/177/79 170/176/78 
f 152/157/60 154/159/62 172/178/80 171/177/79 
f 154/159/62 122/125/30 156/161/64 172/178/80 
f 156/161/64 155/160/63 173/179/81 174/180/82 
f 155/160/63 157/162/65 175/181/83 173/179/81 
f 157/162/65 158/163/66 176/182/84 175/181/83 
f 158/163/66 159/164/67 177/183/85 176/182/84 
f 159/164/67 160/165/68 178/184/86 177/183/85 
f 160/167/68 161/166/69 179/185/87 178/186/86 
f 161/166/69 162/168/70 180/187/88 179/185/87 
f 162/168/70 163/169/71 181/188/89 180/187/88 
f 163/169/71 164/170/72 182/189/90 181/188/89 
f 164/170/72 165/171/73 183/190/91 182/189/90 
f 165/171/73 166/172/74 184/191/92 183/190/91 
f 166/172/74 167/173/75 185/192/93 184/191/92 
f 167/173/75 168/174/76 186/193/94 185/192/93 
f 168/174/76 169/175/77 187/194/95 186/193/94 
f 169/175/77 170/176/78 188/195/96 187/194/95 
f 170/176/78 171/177/79 189/196/97 188/195/96 
f 171/177/79 172/178/80 190/197/98 189/196/97 
f 172/178/80 156/161/64 174/180/82 190/197/98 
f 174/180/82 173/179/81 191/198/99 192/199/100 
f 173/179/81 175/181/83 193/200/101 191/198/99 
f 175/181/83 176/182/84 194/201/102 193/200/101 
f 176/182/84 177/183/85 195/202/103 194/201/102 
f 177/183/85 178/184/86 196/203/104 195/202/103 
f 178/186/86 179/185/87 197/204/105 196/205/104 
f 179/185/87 180/187/88 198/206/106 197/204/105 
f 180/187/88 181/188/89 199/207/107 198/206/106 
f 181/188/89 182/189/90 200/208/108 199/207/107 
f 182/189/90 183/190/91 201/209/109 200/208/108 
f 183/190/91 184/191/92 202/210/110 201/209/109 
f 184/191/92 185/192/93 203/211/111 202/210/110 
f 185/192/93 186/193/94 204/212/112 203/211/111 
f 186/193/94 187/194/95 205/213/113 204/212/112 
f 187/194/95 188/195/96 206/214/114 205/213/113 
f 188/195/96 189/196/97 207/215/115 206/214/114 
f 189/196/97 190/197/98 208/216/116 207/215/115 
f 190/197/98 174/180/82 192/199/100 208/216/116 
f 192/199/100 191/198/99 209/217/117 210/218/118 
f 191/198/99 193/200/101 211/219/119 209/217/117 
f 193/200/101 194/201/102 212/220/120 211/219/119 
f 194/201/102 195/202/103 213/221/121 212/220/120 
f 195/202/103 196/203/104 214/222/122 213/221/121 
f 196/205/104 197/204/105 215/223/123 214/224/122 
f 197/204/105 198/206/106 216/225/124 215/223/123 
f 198/206/106 199/207/107 217/226/125 216/225/124 
f 199/207/107 200/208/108 218/227/126 217/226/125 
f 200/208/108 201/209/109 219/228/127 218/227/126 
f 201/209/109 202/210/110 220/229/128 219/228/127 
f 202/210/110 203/211/111 221/230/129 220/229/128 
f 203/211/111 204/212/112 222/231/130 221/230/129 
f 204/212/112 205/213/113 223/232/131 222/231/130 
f 205/213/113 206/214/114 224/233/132 223/232/131 
f 206/214/114 207/215/115 225/234/133 224/233/132 
f 207/215/115 208/216/116 226/235/134 225/234/133 
f 208/216/116 192/199/100 210/218/118 226/235/134 
# 90 polygons

