# 3ds Max Wavefront OBJ Exporter v0.97b - (c)2007 guruware
# File Created: 21.05.2014 00:49:51

mtllib butter.mtl

#
# object ChamferBox001
#

v  -22.3285 10.2810 -16.1334
v  -22.3285 10.2810 -6.0458
v  8.8305 10.2810 -6.0458
v  8.8305 10.2810 -16.1334
v  -22.3262 9.9901 -17.1696
v  -22.8409 9.9703 -17.0293
v  -23.2183 9.9598 -16.6491
v  -23.3574 9.9610 -16.1309
v  -23.3574 9.9610 -6.0483
v  -23.2183 9.9598 -5.5301
v  -22.8409 9.9703 -5.1499
v  -22.3262 9.9901 -5.0095
v  8.8281 9.9901 -5.0095
v  9.3428 9.9703 -5.1499
v  9.7202 9.9598 -5.5301
v  9.8593 9.9610 -6.0483
v  9.8593 9.9610 -16.1309
v  9.7202 9.9598 -16.6491
v  9.3428 9.9703 -17.0293
v  8.8281 9.9901 -17.1696
v  -22.3255 9.2254 -17.9284
v  -23.2169 9.1920 -17.6852
v  -23.8707 9.1745 -17.0269
v  -24.1115 9.1765 -16.1295
v  -24.1115 9.1765 -6.0497
v  -23.8707 9.1745 -5.1523
v  -23.2169 9.1920 -4.4940
v  -22.3255 9.2254 -4.2507
v  8.8274 9.2254 -4.2507
v  9.7188 9.1920 -4.4940
v  10.3726 9.1745 -5.1523
v  10.6134 9.1765 -6.0497
v  10.6134 9.1765 -16.1295
v  10.3726 9.1745 -17.0269
v  9.7188 9.1920 -17.6852
v  8.8274 9.2254 -17.9284
v  -22.3264 8.1938 -18.2067
v  -23.3557 8.1556 -17.9257
v  -24.1106 8.1356 -17.1655
v  -24.3887 8.1379 -16.1293
v  -24.3887 8.1379 -6.0498
v  -24.1106 8.1356 -5.0137
v  -23.3557 8.1556 -4.2535
v  -22.3264 8.1938 -3.9724
v  8.8283 8.1938 -3.9724
v  9.8576 8.1556 -4.2535
v  10.6125 8.1356 -5.0137
v  10.8906 8.1379 -6.0498
v  10.8906 8.1379 -16.1293
v  10.6125 8.1356 -17.1655
v  9.8576 8.1556 -17.9257
v  8.8283 8.1938 -18.2067
v  -22.3264 1.9844 -18.2067
v  -23.3557 1.9462 -17.9257
v  -24.1106 1.9263 -17.1655
v  -24.3887 1.9285 -16.1293
v  -24.3887 1.9285 -6.0498
v  -24.1106 1.9263 -5.0137
v  -23.3557 1.9462 -4.2535
v  -22.3264 1.9844 -3.9724
v  8.8283 1.9844 -3.9724
v  9.8576 1.9462 -4.2535
v  10.6125 1.9263 -5.0137
v  10.8906 1.9285 -6.0498
v  10.8906 1.9285 -16.1293
v  10.6125 1.9263 -17.1655
v  9.8576 1.9462 -17.9257
v  8.8283 1.9844 -18.2067
v  -22.3255 0.9632 -17.9284
v  -23.2169 0.9298 -17.6852
v  -23.8707 0.9123 -17.0269
v  -24.1115 0.9143 -16.1295
v  -24.1115 0.9143 -6.0497
v  -23.8707 0.9123 -5.1523
v  -23.2169 0.9298 -4.4940
v  -22.3255 0.9632 -4.2507
v  8.8274 0.9632 -4.2507
v  9.7188 0.9298 -4.4940
v  10.3726 0.9123 -5.1523
v  10.6134 0.9143 -6.0497
v  10.6134 0.9143 -16.1295
v  10.3726 0.9123 -17.0269
v  9.7188 0.9298 -17.6852
v  8.8274 0.9632 -17.9284
v  -22.3262 0.7950 -17.1696
v  -22.8409 0.7950 -17.0293
v  -23.2183 0.7950 -16.6491
v  -23.3574 0.7950 -16.1309
v  -23.3574 0.7950 -6.0483
v  -23.2183 0.7950 -5.5301
v  -22.8409 0.7950 -5.1499
v  -22.3262 0.7950 -5.0095
v  8.8281 0.7950 -5.0095
v  9.3428 0.7950 -5.1499
v  9.7202 0.7950 -5.5301
v  9.8593 0.7950 -6.0483
v  9.8593 0.7950 -16.1309
v  9.7202 0.7950 -16.6491
v  9.3428 0.7950 -17.0293
v  8.8281 0.7950 -17.1696
v  -22.3285 0.7950 -16.1334
v  -22.3285 0.7950 -6.0458
v  8.8305 0.7950 -6.0458
v  8.8305 0.7950 -16.1334
# 104 vertices

vn -0.1285 0.9851 -0.1147
vn -0.1285 0.9851 0.1147
vn 0.1285 0.9851 0.1147
vn 0.1285 0.9851 -0.1147
vn -0.0868 0.8506 -0.5185
vn -0.2965 0.8354 -0.4628
vn -0.4851 0.8315 -0.2708
vn -0.5383 0.8395 -0.0739
vn -0.5383 0.8395 0.0739
vn -0.4851 0.8314 0.2709
vn -0.2965 0.8354 0.4629
vn -0.0869 0.8506 0.5186
vn 0.0868 0.8506 0.5185
vn 0.2965 0.8354 0.4628
vn 0.4851 0.8315 0.2708
vn 0.5383 0.8395 0.0739
vn 0.5383 0.8395 -0.0739
vn 0.4851 0.8314 -0.2709
vn 0.2965 0.8354 -0.4629
vn 0.0869 0.8506 -0.5186
vn -0.1228 0.4889 -0.8637
vn -0.4531 0.4755 -0.7540
vn -0.7657 0.4726 -0.4363
vn -0.8699 0.4797 -0.1142
vn -0.8700 0.4797 0.1141
vn -0.7656 0.4727 0.4364
vn -0.4531 0.4756 0.7540
vn -0.1228 0.4889 0.8636
vn 0.1228 0.4889 0.8637
vn 0.4531 0.4755 0.7540
vn 0.7657 0.4726 0.4363
vn 0.8699 0.4797 0.1142
vn 0.8700 0.4797 -0.1141
vn 0.7656 0.4727 -0.4364
vn 0.4531 0.4756 -0.7540
vn 0.1228 0.4889 -0.8636
vn -0.1326 0.1303 -0.9826
vn -0.5022 0.1271 -0.8554
vn -0.8603 0.1265 -0.4939
vn -0.9835 0.1277 -0.1285
vn -0.9835 0.1277 0.1285
vn -0.8603 0.1265 0.4939
vn -0.5022 0.1271 0.8554
vn -0.1326 0.1303 0.9826
vn 0.1326 0.1303 0.9826
vn 0.5022 0.1271 0.8554
vn 0.8603 0.1265 0.4939
vn 0.9835 0.1277 0.1285
vn 0.9835 0.1277 -0.1285
vn 0.8603 0.1265 -0.4939
vn 0.5022 0.1271 -0.8554
vn 0.1326 0.1303 -0.9826
vn -0.1283 -0.1288 -0.9833
vn -0.4963 -0.1308 -0.8582
vn -0.8588 -0.1310 -0.4953
vn -0.9831 -0.1305 -0.1282
vn -0.9831 -0.1305 0.1282
vn -0.8588 -0.1311 0.4953
vn -0.4963 -0.1309 0.8582
vn -0.1283 -0.1288 0.9833
vn 0.1283 -0.1288 0.9833
vn 0.4963 -0.1308 0.8582
vn 0.8588 -0.1310 0.4953
vn 0.9831 -0.1305 0.1282
vn 0.9831 -0.1305 -0.1282
vn 0.8588 -0.1311 -0.4953
vn 0.4963 -0.1309 -0.8582
vn 0.1283 -0.1288 -0.9833
vn -0.0872 -0.7010 -0.7078
vn -0.3466 -0.6992 -0.6253
vn -0.6119 -0.7052 -0.3582
vn -0.6863 -0.7217 -0.0908
vn -0.6861 -0.7218 0.0909
vn -0.6136 -0.7041 0.3573
vn -0.3495 -0.6957 0.6276
vn -0.0845 -0.6989 0.7102
vn 0.0872 -0.7010 0.7078
vn 0.3466 -0.6992 0.6253
vn 0.6119 -0.7052 0.3582
vn 0.6863 -0.7217 0.0908
vn 0.6861 -0.7218 -0.0909
vn 0.6136 -0.7041 -0.3573
vn 0.3495 -0.6957 -0.6276
vn 0.0845 -0.6989 -0.7102
vn -0.0173 -0.9929 -0.1179
vn -0.0481 -0.9941 -0.0969
vn -0.0783 -0.9957 -0.0495
vn -0.0845 -0.9963 -0.0118
vn -0.0849 -0.9963 0.0123
vn -0.0783 -0.9959 0.0445
vn -0.0470 -0.9950 0.0881
vn -0.0098 -0.9936 0.1126
vn 0.0173 -0.9929 0.1179
vn 0.0481 -0.9941 0.0969
vn 0.0783 -0.9957 0.0495
vn 0.0845 -0.9963 0.0118
vn 0.0849 -0.9963 -0.0123
vn 0.0783 -0.9959 -0.0445
vn 0.0470 -0.9950 -0.0881
vn 0.0098 -0.9936 -0.1126
vn 0.0000 -1.0000 -0.0000
# 101 vertex normals

vt 0.0587 0.8543 0.0000
vt 0.0587 0.1457 0.0000
vt 0.9413 0.1457 0.0000
vt 0.9413 0.8543 0.0000
vt 0.0587 0.9271 0.0000
vt 0.0441 0.9174 0.0000
vt 0.0333 0.8907 0.0000
vt 0.0294 0.8543 0.0000
vt 0.0294 0.1457 0.0000
vt 0.0333 0.1093 0.0000
vt 0.0441 0.0826 0.0000
vt 0.0587 0.0729 0.0000
vt 0.9413 0.0729 0.0000
vt 0.9559 0.0826 0.0000
vt 0.9667 0.1093 0.0000
vt 0.9706 0.1457 0.0000
vt 0.9706 0.8543 0.0000
vt 0.9667 0.8907 0.0000
vt 0.9559 0.9174 0.0000
vt 0.9413 0.9271 0.0000
vt 0.0587 0.9805 0.0000
vt 0.0333 0.9636 0.0000
vt 0.0147 0.9174 0.0000
vt 0.0079 0.8543 0.0000
vt 0.0079 0.1457 0.0000
vt 0.0147 0.0826 0.0000
vt 0.0333 0.0364 0.0000
vt 0.0587 0.0195 0.0000
vt 0.9413 0.0195 0.0000
vt 0.9667 0.0364 0.0000
vt 0.9853 0.0826 0.0000
vt 0.9921 0.1457 0.0000
vt 0.9921 0.8543 0.0000
vt 0.9853 0.9174 0.0000
vt 0.9667 0.9636 0.0000
vt 0.9413 0.9805 0.0000
vt 0.0587 1.0000 0.0000
vt 0.0294 0.9805 0.0000
vt 0.0079 0.9271 0.0000
vt 0.0000 0.8543 0.0000
vt 0.0000 0.1457 0.0000
vt 0.0079 0.0729 0.0000
vt 0.0294 0.0195 0.0000
vt 0.0587 0.0000 0.0000
vt 0.9413 0.0000 0.0000
vt 0.9706 0.0195 0.0000
vt 0.9921 0.0729 0.0000
vt 1.0000 0.1457 0.0000
vt 1.0000 0.8543 0.0000
vt 0.9921 0.9271 0.0000
vt 0.9706 0.9805 0.0000
vt 0.9413 1.0000 0.0000
vt 0.0000 1.0000 0.0000
vt 0.0000 0.0000 0.0000
vt 0.0104 0.0000 0.0000
vt 0.0104 1.0000 0.0000
vt 0.0207 0.0000 0.0000
vt 0.0207 1.0000 0.0000
vt 0.0311 0.0000 0.0000
vt 0.0311 1.0000 0.0000
vt 0.1284 0.0000 0.0000
vt 0.1284 1.0000 0.0000
vt 0.1387 0.0000 0.0000
vt 0.1387 1.0000 0.0000
vt 0.1491 0.0000 0.0000
vt 0.1491 1.0000 0.0000
vt 0.1594 0.0000 0.0000
vt 0.1594 1.0000 0.0000
vt 0.4600 0.0000 0.0000
vt 0.4600 1.0000 0.0000
vt 0.4703 0.0000 0.0000
vt 0.4703 1.0000 0.0000
vt 0.4807 0.0000 0.0000
vt 0.4807 1.0000 0.0000
vt 0.4911 0.0000 0.0000
vt 0.4911 1.0000 0.0000
vt 0.5884 0.0000 0.0000
vt 0.5884 1.0000 0.0000
vt 0.5987 0.0000 0.0000
vt 0.5987 1.0000 0.0000
vt 0.6091 0.0000 0.0000
vt 0.6091 1.0000 0.0000
vt 0.6194 0.0000 0.0000
vt 0.6194 1.0000 0.0000
vt 1.0000 0.0000 0.0000
vt 1.0000 1.0000 0.0000
# 86 texture coords

g ChamferBox001
usemtl Material__27
s 1
f 1/1/1 2/2/2 3/3/3 4/4/4 
f 1/1/1 5/5/5 6/6/6 
f 1/1/1 6/6/6 7/7/7 
f 1/1/1 7/7/7 8/8/8 
f 1/1/1 8/8/8 9/9/9 2/2/2 
f 2/2/2 9/9/9 10/10/10 
f 2/2/2 10/10/10 11/11/11 
f 2/2/2 11/11/11 12/12/12 
f 2/2/2 12/12/12 13/13/13 3/3/3 
f 3/3/3 13/13/13 14/14/14 
f 3/3/3 14/14/14 15/15/15 
f 3/3/3 15/15/15 16/16/16 
f 3/3/3 16/16/16 17/17/17 4/4/4 
f 4/4/4 17/17/17 18/18/18 
f 4/4/4 18/18/18 19/19/19 
f 4/4/4 19/19/19 20/20/20 
f 4/4/4 20/20/20 5/5/5 1/1/1 
f 5/5/5 21/21/21 22/22/22 6/6/6 
f 6/6/6 22/22/22 23/23/23 7/7/7 
f 7/7/7 23/23/23 24/24/24 8/8/8 
f 8/8/8 24/24/24 25/25/25 9/9/9 
f 9/9/9 25/25/25 26/26/26 10/10/10 
f 10/10/10 26/26/26 27/27/27 11/11/11 
f 11/11/11 27/27/27 28/28/28 12/12/12 
f 12/12/12 28/28/28 29/29/29 13/13/13 
f 13/13/13 29/29/29 30/30/30 14/14/14 
f 14/14/14 30/30/30 31/31/31 15/15/15 
f 15/15/15 31/31/31 32/32/32 16/16/16 
f 16/16/16 32/32/32 33/33/33 17/17/17 
f 17/17/17 33/33/33 34/34/34 18/18/18 
f 18/18/18 34/34/34 35/35/35 19/19/19 
f 19/19/19 35/35/35 36/36/36 20/20/20 
f 20/20/20 36/36/36 21/21/21 5/5/5 
f 21/21/21 37/37/37 38/38/38 22/22/22 
f 22/22/22 38/38/38 39/39/39 23/23/23 
f 23/23/23 39/39/39 40/40/40 24/24/24 
f 24/24/24 40/40/40 41/41/41 25/25/25 
f 25/25/25 41/41/41 42/42/42 26/26/26 
f 26/26/26 42/42/42 43/43/43 27/27/27 
f 27/27/27 43/43/43 44/44/44 28/28/28 
f 28/28/28 44/44/44 45/45/45 29/29/29 
f 29/29/29 45/45/45 46/46/46 30/30/30 
f 30/30/30 46/46/46 47/47/47 31/31/31 
f 31/31/31 47/47/47 48/48/48 32/32/32 
f 32/32/32 48/48/48 49/49/49 33/33/33 
f 33/33/33 49/49/49 50/50/50 34/34/34 
f 34/34/34 50/50/50 51/51/51 35/35/35 
f 35/35/35 51/51/51 52/52/52 36/36/36 
f 36/36/36 52/52/52 37/37/37 21/21/21 
f 37/53/37 53/54/53 54/55/54 38/56/38 
f 38/56/38 54/55/54 55/57/55 39/58/39 
f 39/58/39 55/57/55 56/59/56 40/60/40 
f 40/60/40 56/59/56 57/61/57 41/62/41 
f 41/62/41 57/61/57 58/63/58 42/64/42 
f 42/64/42 58/63/58 59/65/59 43/66/43 
f 43/66/43 59/65/59 60/67/60 44/68/44 
f 44/68/44 60/67/60 61/69/61 45/70/45 
f 45/70/45 61/69/61 62/71/62 46/72/46 
f 46/72/46 62/71/62 63/73/63 47/74/47 
f 47/74/47 63/73/63 64/75/64 48/76/48 
f 48/76/48 64/75/64 65/77/65 49/78/49 
f 49/78/49 65/77/65 66/79/66 50/80/50 
f 50/80/50 66/79/66 67/81/67 51/82/51 
f 51/82/51 67/81/67 68/83/68 52/84/52 
f 52/84/52 68/83/68 53/85/53 37/86/37 
f 53/44/53 69/28/69 70/27/70 54/43/54 
f 54/43/54 70/27/70 71/26/71 55/42/55 
f 55/42/55 71/26/71 72/25/72 56/41/56 
f 56/41/56 72/25/72 73/24/73 57/40/57 
f 57/40/57 73/24/73 74/23/74 58/39/58 
f 58/39/58 74/23/74 75/22/75 59/38/59 
f 59/38/59 75/22/75 76/21/76 60/37/60 
f 60/37/60 76/21/76 77/36/77 61/52/61 
f 61/52/61 77/36/77 78/35/78 62/51/62 
f 62/51/62 78/35/78 79/34/79 63/50/63 
f 63/50/63 79/34/79 80/33/80 64/49/64 
f 64/49/64 80/33/80 81/32/81 65/48/65 
f 65/48/65 81/32/81 82/31/82 66/47/66 
f 66/47/66 82/31/82 83/30/83 67/46/67 
f 67/46/67 83/30/83 84/29/84 68/45/68 
f 68/45/68 84/29/84 69/28/69 53/44/53 
f 69/28/69 85/12/85 86/11/86 70/27/70 
f 70/27/70 86/11/86 87/10/87 71/26/71 
f 71/26/71 87/10/87 88/9/88 72/25/72 
f 72/25/72 88/9/88 89/8/89 73/24/73 
f 73/24/73 89/8/89 90/7/90 74/23/74 
f 74/23/74 90/7/90 91/6/91 75/22/75 
f 75/22/75 91/6/91 92/5/92 76/21/76 
f 76/21/76 92/5/92 93/20/93 77/36/77 
f 77/36/77 93/20/93 94/19/94 78/35/78 
f 78/35/78 94/19/94 95/18/95 79/34/79 
f 79/34/79 95/18/95 96/17/96 80/33/80 
f 80/33/80 96/17/96 97/16/97 81/32/81 
f 81/32/81 97/16/97 98/15/98 82/31/82 
f 82/31/82 98/15/98 99/14/99 83/30/83 
f 83/30/83 99/14/99 100/13/100 84/29/84 
f 84/29/84 100/13/100 85/12/85 69/28/69 
f 85/12/85 101/2/101 86/11/86 
f 86/11/86 101/2/101 87/10/87 
f 87/10/87 101/2/101 88/9/88 
f 88/9/88 101/2/101 102/1/101 89/8/89 
f 89/8/89 102/1/101 90/7/90 
f 90/7/90 102/1/101 91/6/91 
f 91/6/91 102/1/101 92/5/92 
f 92/5/92 102/1/101 103/4/101 93/20/93 
f 93/20/93 103/4/101 94/19/94 
f 94/19/94 103/4/101 95/18/95 
f 95/18/95 103/4/101 96/17/96 
f 96/17/96 103/4/101 104/3/101 97/16/97 
f 97/16/97 104/3/101 98/15/98 
f 98/15/98 104/3/101 99/14/99 
f 99/14/99 104/3/101 100/13/100 
f 100/13/100 104/3/101 101/2/101 85/12/85 
f 104/3/101 103/4/101 102/1/101 101/2/101 
# 90 polygons - 24 triangles

