# 3ds Max Wavefront OBJ Exporter v0.97b - (c)2007 guruware
# File Created: 08.05.2014 18:04:54

mtllib milkcarton.mtl

#
# object Box001
#

v  8.3809 2.9831 0.9473
v  8.3809 2.9831 -4.0672
v  18.6526 2.9831 -4.0672
v  18.6526 2.9831 5.2210
v  8.3809 2.9831 -8.3409
v  8.3809 2.9831 -13.3553
v  18.6526 2.9831 -13.3553
v  18.6526 43.3645 -4.0672
v  8.3809 43.3645 -4.0672
v  8.3809 32.9656 5.2210
v  18.6526 32.9656 -13.3553
v  8.3809 32.9656 -13.3553
v  18.6526 5.9813 5.2210
v  8.3809 5.9813 5.2210
v  8.3809 2.9831 5.2210
v  18.6526 8.9796 5.2210
v  8.3809 8.9796 5.2210
v  18.6526 11.9778 5.2210
v  8.3809 11.9778 5.2210
v  18.6526 14.9761 5.2210
v  8.3809 14.9761 5.2210
v  18.6526 17.9743 5.2210
v  8.3809 17.9743 5.2210
v  18.6526 20.9726 5.2210
v  8.3809 20.9726 5.2210
v  18.6526 23.9709 5.2210
v  8.3809 23.9709 5.2210
v  18.6526 26.9691 5.2210
v  8.3809 26.9691 5.2210
v  18.6526 29.9674 5.2210
v  8.3809 29.9674 5.2210
v  18.6526 32.9656 5.2210
v  18.6526 5.9813 -4.0672
v  18.6526 5.9813 -13.3553
v  18.6526 8.9796 -4.0672
v  18.6526 8.9796 -13.3553
v  18.6526 11.9778 -4.0672
v  18.6526 11.9778 -13.3553
v  18.6526 14.9761 -4.0672
v  18.6526 14.9761 -13.3553
v  18.6526 17.9743 -4.0672
v  18.6526 17.9743 -13.3553
v  18.6526 20.9726 -4.0672
v  18.6526 20.9726 -13.3553
v  18.6526 23.9709 -4.0672
v  18.6526 23.9709 -13.3553
v  18.6526 26.9691 -4.0672
v  18.6526 26.9691 -13.3553
v  9.3766 29.9674 -4.0672
v  18.6526 29.9674 -13.3553
v  8.3809 5.9813 -13.3553
v  8.3809 8.9796 -13.3553
v  8.3809 11.9778 -13.3553
v  8.3809 14.9761 -13.3553
v  8.3809 17.9743 -13.3553
v  8.3809 20.9726 -13.3553
v  8.3809 23.9709 -13.3553
v  8.3809 26.9691 -13.3553
v  8.3809 29.9674 -13.3553
v  -1.8907 2.9831 5.2210
v  -1.8907 2.9831 -4.0672
v  -1.8907 2.9831 -13.3553
v  -1.8907 43.3645 -4.0672
v  -1.8907 32.9656 -13.3553
v  -1.8907 5.9813 5.2210
v  -1.8907 8.9796 5.2210
v  -1.8907 11.9778 5.2210
v  -1.8907 14.9761 5.2210
v  -1.8907 17.9743 5.2210
v  -1.8907 20.9726 5.2210
v  -1.8907 23.9709 5.2210
v  -1.8907 26.9691 5.2210
v  -1.8907 29.9674 5.2210
v  -1.8907 32.9656 5.2210
v  -1.8907 5.9813 -4.0672
v  -1.8907 5.9813 -13.3553
v  -1.8907 8.9796 -4.0672
v  -1.8907 8.9796 -13.3553
v  -1.8907 11.9778 -4.0672
v  -1.8907 11.9778 -13.3553
v  -1.8907 14.9761 -4.0672
v  -1.8907 14.9761 -13.3553
v  -1.8907 17.9743 -4.0672
v  -1.8907 17.9743 -13.3553
v  -1.8907 20.9726 -4.0672
v  -1.8907 20.9726 -13.3553
v  -1.8907 23.9709 -4.0672
v  -1.8907 23.9709 -13.3553
v  -1.8907 26.9691 -4.0672
v  -1.8907 26.9691 -13.3553
v  7.3853 29.9674 -4.0672
v  -1.8907 29.9674 -13.3553
# 92 vertices

vn 0.0000 -1.0000 -0.0000
vn 0.0000 1.0000 -0.0000
vn 0.0000 1.0000 0.0000
vn 0.0000 0.6662 0.7458
vn 0.0000 0.6662 -0.7458
vn 0.0000 0.0000 1.0000
vn 1.0000 0.0000 -0.0000
vn 0.8359 0.5426 0.0829
vn 0.9148 0.2542 -0.3139
vn 0.9737 0.2277 0.0113
vn 0.7886 -0.1635 -0.5928
vn 0.8600 0.2489 0.4455
vn 0.8474 -0.5304 -0.0242
vn 0.7245 -0.2413 0.6457
vn 0.0000 0.0000 -1.0000
vn -1.0000 0.0000 -0.0000
vn -0.9148 0.2542 -0.3139
vn -0.8359 0.5426 0.0829
vn -0.7886 -0.1635 -0.5928
vn -0.9737 0.2277 0.0113
vn -0.8600 0.2489 0.4455
vn -0.8474 -0.5304 -0.0242
vn -0.7245 -0.2413 0.6457
# 23 vertex normals

vt 0.5399 0.2301 0.0000
vt 0.5399 0.5000 0.0000
vt 0.0000 0.5000 0.0000
vt 0.0000 0.0000 0.0000
vt 0.5399 0.7301 0.0000
vt 0.5399 1.0000 0.0000
vt 0.0000 1.0000 0.0000
vt 1.0000 0.5000 0.0000
vt 0.4601 0.5000 0.0000
vt 0.4601 0.0000 0.0000
vt 1.0000 1.0000 0.0000
vt 0.4601 1.0000 0.0000
vt 1.0000 0.1000 0.0000
vt 0.4601 0.1000 0.0000
vt 1.0000 0.2000 0.0000
vt 0.4601 0.2000 0.0000
vt 1.0000 0.3000 0.0000
vt 0.4601 0.3000 0.0000
vt 1.0000 0.4000 0.0000
vt 0.4601 0.4000 0.0000
vt 1.0000 0.6000 0.0000
vt 0.4601 0.6000 0.0000
vt 1.0000 0.7000 0.0000
vt 0.4601 0.7000 0.0000
vt 1.0000 0.8000 0.0000
vt 0.4601 0.8000 0.0000
vt 1.0000 0.9000 0.0000
vt 0.4601 0.9000 0.0000
vt 0.5000 0.0000 0.0000
vt 0.5000 0.1000 0.0000
vt 0.0000 0.1000 0.0000
vt 1.0000 0.0000 0.0000
vt 0.5000 0.2000 0.0000
vt 0.0000 0.2000 0.0000
vt 0.5000 0.3000 0.0000
vt 0.0000 0.3000 0.0000
vt 0.5000 0.4000 0.0000
vt 0.0000 0.4000 0.0000
vt 0.5000 0.5000 0.0000
vt 0.5000 0.6000 0.0000
vt 0.0000 0.6000 0.0000
vt 0.5000 0.7000 0.0000
vt 0.0000 0.7000 0.0000
vt 0.5000 0.8000 0.0000
vt 0.0000 0.8000 0.0000
vt 0.5000 0.9000 0.0000
vt 0.0000 0.9000 0.0000
vt 0.5000 1.0000 0.0000
vt 0.5399 0.0000 0.0000
vt 0.5399 0.1000 0.0000
vt 0.5399 0.2000 0.0000
vt 0.5399 0.3000 0.0000
vt 0.5399 0.4000 0.0000
vt 0.5399 0.6000 0.0000
vt 0.5399 0.7000 0.0000
vt 0.5399 0.8000 0.0000
vt 0.5399 0.9000 0.0000
# 57 texture coords

g Box001
usemtl Material__26
s 2
f 1/1/1 2/2/1 3/3/1 4/4/1 
f 5/5/1 6/6/1 7/7/1 3/3/1 
s 4
f 8/8/2 9/9/3 10/10/4 
f 11/11/5 12/12/5 9/9/3 
s 8
f 13/13/6 14/14/6 15/10/6 
f 16/15/6 17/16/6 14/14/6 
f 18/17/6 19/18/6 17/16/6 
f 20/19/6 21/20/6 19/18/6 
f 22/8/6 23/9/6 21/20/6 
f 24/21/6 25/22/6 23/9/6 
f 26/23/6 27/24/6 25/22/6 
f 28/25/6 29/26/6 27/24/6 
f 30/27/6 31/28/6 29/26/6 
f 32/11/6 10/12/6 31/28/6 
s 16
f 4/4/7 3/29/7 33/30/7 13/31/7 
f 3/29/7 7/32/7 34/13/7 33/30/7 
f 13/31/7 33/30/7 35/33/7 16/34/7 
f 33/30/7 34/13/7 36/15/7 35/33/7 
f 16/34/7 35/33/7 37/35/7 18/36/7 
f 35/33/7 36/15/7 38/17/7 37/35/7 
f 18/36/7 37/35/7 39/37/7 20/38/7 
f 37/35/7 38/17/7 40/19/7 39/37/7 
f 20/38/7 39/37/7 41/39/7 22/3/7 
f 39/37/7 40/19/7 42/8/7 41/39/7 
f 22/3/7 41/39/7 43/40/7 24/41/7 
f 41/39/7 42/8/7 44/21/7 43/40/7 
f 24/41/7 43/40/7 45/42/7 26/43/7 
f 43/40/7 44/21/7 46/23/7 45/42/7 
f 26/43/7 45/42/7 47/44/8 28/45/9 
f 45/42/7 46/23/7 48/25/7 47/44/8 
f 28/45/9 47/44/8 49/46/10 30/47/11 
f 47/44/8 48/25/7 50/27/12 49/46/10 
f 30/47/11 49/46/10 8/48/13 32/7/7 
f 49/46/10 50/27/12 11/11/14 8/48/13 
s 32
f 7/4/15 6/49/15 51/50/15 
f 34/31/15 51/50/15 52/51/15 
f 36/34/15 52/51/15 53/52/15 
f 38/36/15 53/52/15 54/53/15 
f 40/38/15 54/53/15 55/2/15 
f 42/3/15 55/2/15 56/54/15 
f 44/41/15 56/54/15 57/55/15 
f 46/43/15 57/55/15 58/56/15 
f 48/45/15 58/56/15 59/57/15 
f 50/47/15 59/57/15 12/6/15 
s 2
f 1/1/1 4/4/1 15/49/1 
f 5/5/1 3/3/1 2/2/1 
s 4
f 10/10/4 32/32/4 8/8/2 
f 9/9/3 8/8/2 11/11/5 
s 8
f 15/10/6 4/32/6 13/13/6 
f 14/14/6 13/13/6 16/15/6 
f 17/16/6 16/15/6 18/17/6 
f 19/18/6 18/17/6 20/19/6 
f 21/20/6 20/19/6 22/8/6 
f 23/9/6 22/8/6 24/21/6 
f 25/22/6 24/21/6 26/23/6 
f 27/24/6 26/23/6 28/25/6 
f 29/26/6 28/25/6 30/27/6 
f 31/28/6 30/27/6 32/11/6 
s 32
f 51/50/15 34/31/15 7/4/15 
f 52/51/15 36/34/15 34/31/15 
f 53/52/15 38/36/15 36/34/15 
f 54/53/15 40/38/15 38/36/15 
f 55/2/15 42/3/15 40/38/15 
f 56/54/15 44/41/15 42/3/15 
f 57/55/15 46/43/15 44/41/15 
f 58/56/15 48/45/15 46/43/15 
f 59/57/15 50/47/15 48/45/15 
f 12/6/15 11/7/15 50/47/15 
s 2
f 2/2/1 1/1/1 60/4/1 61/3/1 
f 6/6/1 5/5/1 61/3/1 62/7/1 
s 4
f 9/9/3 63/8/2 10/10/4 
f 12/12/5 64/11/5 9/9/3 
s 8
f 14/14/6 65/13/6 15/10/6 
f 17/16/6 66/15/6 14/14/6 
f 19/18/6 67/17/6 17/16/6 
f 21/20/6 68/19/6 19/18/6 
f 23/9/6 69/8/6 21/20/6 
f 25/22/6 70/21/6 23/9/6 
f 27/24/6 71/23/6 25/22/6 
f 29/26/6 72/25/6 27/24/6 
f 31/28/6 73/27/6 29/26/6 
f 10/12/6 74/11/6 31/28/6 
s 16
f 61/29/16 60/4/16 65/31/16 75/30/16 
f 62/32/16 61/29/16 75/30/16 76/13/16 
f 75/30/16 65/31/16 66/34/16 77/33/16 
f 76/13/16 75/30/16 77/33/16 78/15/16 
f 77/33/16 66/34/16 67/36/16 79/35/16 
f 78/15/16 77/33/16 79/35/16 80/17/16 
f 79/35/16 67/36/16 68/38/16 81/37/16 
f 80/17/16 79/35/16 81/37/16 82/19/16 
f 81/37/16 68/38/16 69/3/16 83/39/16 
f 82/19/16 81/37/16 83/39/16 84/8/16 
f 83/39/16 69/3/16 70/41/16 85/40/16 
f 84/8/16 83/39/16 85/40/16 86/21/16 
f 85/40/16 70/41/16 71/43/16 87/42/16 
f 86/21/16 85/40/16 87/42/16 88/23/16 
f 87/42/16 71/43/16 72/45/17 89/44/18 
f 88/23/16 87/42/16 89/44/18 90/25/16 
f 89/44/18 72/45/17 73/47/19 91/46/20 
f 90/25/16 89/44/18 91/46/20 92/27/21 
f 91/46/20 73/47/19 74/7/16 63/48/22 
f 92/27/21 91/46/20 63/48/22 64/11/23 
s 32
f 6/49/15 62/4/15 51/50/15 
f 51/50/15 76/31/15 52/51/15 
f 52/51/15 78/34/15 53/52/15 
f 53/52/15 80/36/15 54/53/15 
f 54/53/15 82/38/15 55/2/15 
f 55/2/15 84/3/15 56/54/15 
f 56/54/15 86/41/15 57/55/15 
f 57/55/15 88/43/15 58/56/15 
f 58/56/15 90/45/15 59/57/15 
f 59/57/15 92/47/15 12/6/15 
s 2
f 60/4/1 1/1/1 15/49/1 
f 61/3/1 5/5/1 2/2/1 
s 4
f 74/32/4 10/10/4 63/8/2 
f 63/8/2 9/9/3 64/11/5 
s 8
f 60/32/6 15/10/6 65/13/6 
f 65/13/6 14/14/6 66/15/6 
f 66/15/6 17/16/6 67/17/6 
f 67/17/6 19/18/6 68/19/6 
f 68/19/6 21/20/6 69/8/6 
f 69/8/6 23/9/6 70/21/6 
f 70/21/6 25/22/6 71/23/6 
f 71/23/6 27/24/6 72/25/6 
f 72/25/6 29/26/6 73/27/6 
f 73/27/6 31/28/6 74/11/6 
s 32
f 76/31/15 51/50/15 62/4/15 
f 78/34/15 52/51/15 76/31/15 
f 80/36/15 53/52/15 78/34/15 
f 82/38/15 54/53/15 80/36/15 
f 84/3/15 55/2/15 82/38/15 
f 86/41/15 56/54/15 84/3/15 
f 88/43/15 57/55/15 86/41/15 
f 90/45/15 58/56/15 88/43/15 
f 92/47/15 59/57/15 90/45/15 
f 64/7/15 12/6/15 92/47/15 
# 44 polygons - 92 triangles

