# 3ds Max Wavefront OBJ Exporter v0.97b - (c)2007 guruware
# File Created: 05.06.2014 22:39:28

mtllib salt.mtl

#
# object Cylinder001
#

v  -0.0366 -12.3690 -0.1835
v  4.6618 -12.3690 -1.8936
v  4.9634 -12.3690 -0.1835
v  3.7936 -12.3690 -3.3974
v  2.4634 -12.3690 -4.5136
v  0.8316 -12.3690 -5.1075
v  -0.9049 -12.3690 -5.1075
v  -2.5366 -12.3690 -4.5136
v  -3.8668 -12.3690 -3.3974
v  -4.7351 -12.3690 -1.8936
v  -5.0366 -12.3690 -0.1835
v  -4.7351 -12.3690 1.5266
v  -3.8668 -12.3690 3.0305
v  -2.5366 -12.3690 4.1467
v  -0.9049 -12.3690 4.7406
v  0.8316 -12.3690 4.7406
v  2.4634 -12.3690 4.1467
v  3.7936 -12.3690 3.0305
v  4.6618 -12.3690 1.5266
v  9.3603 -12.3690 -3.6037
v  9.9634 -12.3690 -0.1835
v  7.6238 -12.3690 -6.6113
v  4.9634 -12.3690 -8.8437
v  1.6999 -12.3690 -10.0315
v  -1.7731 -12.3690 -10.0315
v  -5.0366 -12.3690 -8.8437
v  -7.6971 -12.3690 -6.6113
v  -9.4335 -12.3690 -3.6037
v  -10.0366 -12.3690 -0.1835
v  -9.4335 -12.3690 3.2367
v  -7.6971 -12.3690 6.2444
v  -5.0366 -12.3690 8.4768
v  -1.7731 -12.3690 9.6646
v  1.6999 -12.3690 9.6646
v  4.9634 -12.3690 8.4768
v  7.6238 -12.3690 6.2444
v  9.3603 -12.3690 3.2367
v  9.3603 -7.3690 -3.6037
v  9.9634 -7.3690 -0.1835
v  7.6238 -7.3690 -6.6113
v  4.9634 -7.3690 -8.8437
v  1.6999 -7.3690 -10.0315
v  -1.7731 -7.3690 -10.0315
v  -5.0366 -7.3690 -8.8437
v  -7.6971 -7.3690 -6.6113
v  -9.4335 -7.3690 -3.6037
v  -10.0366 -7.3690 -0.1835
v  -9.4335 -7.3690 3.2367
v  -7.6971 -7.3690 6.2444
v  -5.0366 -7.3690 8.4768
v  -1.7731 -7.3690 9.6646
v  1.6999 -7.3690 9.6646
v  4.9634 -7.3690 8.4768
v  7.6238 -7.3690 6.2444
v  9.3603 -7.3690 3.2367
v  9.3603 -2.3690 -3.6037
v  9.9634 -2.3690 -0.1835
v  7.6238 -2.3690 -6.6113
v  4.9634 -2.3690 -8.8437
v  1.6999 -2.3690 -10.0315
v  -1.7731 -2.3690 -10.0315
v  -5.0366 -2.3690 -8.8437
v  -7.6971 -2.3690 -6.6113
v  -9.4335 -2.3690 -3.6037
v  -10.0366 -2.3690 -0.1835
v  -9.4335 -2.3690 3.2367
v  -7.6971 -2.3690 6.2444
v  -5.0366 -2.3690 8.4768
v  -1.7731 -2.3690 9.6646
v  1.6999 -2.3690 9.6646
v  4.9634 -2.3690 8.4768
v  7.6238 -2.3690 6.2444
v  9.3603 -2.3690 3.2367
v  9.3603 2.6310 -3.6037
v  9.9634 2.6310 -0.1835
v  7.6238 2.6310 -6.6113
v  4.9634 2.6310 -8.8437
v  1.6999 2.6310 -10.0315
v  -1.7731 2.6310 -10.0315
v  -5.0366 2.6310 -8.8437
v  -7.6971 2.6310 -6.6113
v  -9.4335 2.6310 -3.6037
v  -10.0366 2.6310 -0.1835
v  -9.4335 2.6310 3.2367
v  -7.6971 2.6310 6.2444
v  -5.0366 2.6310 8.4768
v  -1.7731 2.6310 9.6646
v  1.6999 2.6310 9.6646
v  4.9634 2.6310 8.4768
v  7.6238 2.6310 6.2444
v  9.3603 2.6310 3.2367
v  9.3603 7.6310 -3.6037
v  9.9634 7.6310 -0.1835
v  7.6238 7.6310 -6.6113
v  4.9634 7.6310 -8.8437
v  1.6999 7.6310 -10.0315
v  -1.7731 7.6310 -10.0315
v  -5.0366 7.6310 -8.8437
v  -7.6971 7.6310 -6.6113
v  -9.4335 7.6310 -3.6037
v  -10.0366 7.6310 -0.1835
v  -9.4335 7.6310 3.2367
v  -7.6971 7.6310 6.2444
v  -5.0366 7.6310 8.4768
v  -1.7731 7.6310 9.6646
v  1.6999 7.6310 9.6646
v  4.9634 7.6310 8.4768
v  7.6238 7.6310 6.2444
v  9.3603 7.6310 3.2367
v  9.3603 12.6310 -3.6037
v  9.9634 12.6310 -0.1835
v  7.6238 12.6310 -6.6113
v  4.9634 12.6310 -8.8437
v  1.6999 12.6310 -10.0315
v  -1.7731 12.6310 -10.0315
v  -5.0366 12.6310 -8.8437
v  -7.6971 12.6310 -6.6113
v  -9.4335 12.6310 -3.6037
v  -10.0366 12.6310 -0.1835
v  -9.4335 12.6310 3.2367
v  -7.6971 12.6310 6.2444
v  -5.0366 12.6310 8.4768
v  -1.7731 12.6310 9.6646
v  1.6999 12.6310 9.6646
v  4.9634 12.6310 8.4768
v  7.6238 12.6310 6.2444
v  9.3603 12.6310 3.2367
v  4.6618 12.6310 -1.8936
v  4.9634 12.6310 -0.1835
v  3.7936 12.6310 -3.3974
v  2.4634 12.6310 -4.5136
v  0.8316 12.6310 -5.1075
v  -0.9049 12.6310 -5.1075
v  -2.5366 12.6310 -4.5136
v  -3.8668 12.6310 -3.3974
v  -4.7351 12.6310 -1.8936
v  -5.0366 12.6310 -0.1835
v  -4.7351 12.6310 1.5266
v  -3.8668 12.6310 3.0305
v  -2.5366 12.6310 4.1467
v  -0.9049 12.6310 4.7406
v  0.8316 12.6310 4.7406
v  2.4634 12.6310 4.1467
v  3.7936 12.6310 3.0305
v  4.6618 12.6310 1.5266
v  -0.0366 12.6310 -0.1835
# 146 vertices

vn 0.0000 -1.0000 -0.0000
vn 0.6976 -0.6700 -0.2539
vn 0.7423 -0.6700 0.0000
vn 0.5687 -0.6700 -0.4772
vn 0.3712 -0.6700 -0.6429
vn 0.1289 -0.6700 -0.7311
vn -0.1289 -0.6700 -0.7311
vn -0.3712 -0.6700 -0.6429
vn -0.5687 -0.6700 -0.4772
vn -0.6976 -0.6700 -0.2539
vn -0.7423 -0.6700 -0.0000
vn -0.6976 -0.6700 0.2539
vn -0.5687 -0.6700 0.4772
vn -0.3712 -0.6700 0.6429
vn -0.1289 -0.6700 0.7311
vn 0.1289 -0.6700 0.7311
vn 0.3712 -0.6700 0.6429
vn 0.5687 -0.6700 0.4772
vn 0.6976 -0.6700 0.2539
vn 0.9397 0.0000 -0.3420
vn 1.0000 0.0000 0.0000
vn 0.7660 0.0000 -0.6428
vn 0.5000 0.0000 -0.8660
vn 0.1736 0.0000 -0.9848
vn -0.1736 0.0000 -0.9848
vn -0.5000 0.0000 -0.8660
vn -0.7660 0.0000 -0.6428
vn -0.9397 0.0000 -0.3420
vn -1.0000 0.0000 -0.0000
vn -0.9397 0.0000 0.3420
vn -0.7660 0.0000 0.6428
vn -0.5000 0.0000 0.8660
vn -0.1736 0.0000 0.9848
vn 0.1736 0.0000 0.9848
vn 0.5000 0.0000 0.8660
vn 0.7660 0.0000 0.6428
vn 0.9397 0.0000 0.3420
vn 0.6976 0.6700 -0.2539
vn 0.7423 0.6700 0.0000
vn 0.5687 0.6700 -0.4772
vn 0.3712 0.6700 -0.6429
vn 0.1289 0.6700 -0.7311
vn -0.1289 0.6700 -0.7311
vn -0.3712 0.6700 -0.6429
vn -0.5687 0.6700 -0.4772
vn -0.6976 0.6700 -0.2539
vn -0.7423 0.6700 -0.0000
vn -0.6976 0.6700 0.2539
vn -0.5687 0.6700 0.4772
vn -0.3712 0.6700 0.6429
vn -0.1289 0.6700 0.7311
vn 0.1289 0.6700 0.7311
vn 0.3712 0.6700 0.6429
vn 0.5687 0.6700 0.4772
vn 0.6976 0.6700 0.2539
vn 0.0000 1.0000 -0.0000
# 56 vertex normals

vt 0.1531 0.3260 0.0000
vt 0.2241 0.3002 0.0000
vt 0.2287 0.3260 0.0000
vt 0.2110 0.2775 0.0000
vt 0.1909 0.2606 0.0000
vt 0.1662 0.2516 0.0000
vt 0.1400 0.2516 0.0000
vt 0.1153 0.2606 0.0000
vt 0.0952 0.2775 0.0000
vt 0.0821 0.3002 0.0000
vt 0.0776 0.3260 0.0000
vt 0.0821 0.3519 0.0000
vt 0.0952 0.3746 0.0000
vt 0.1153 0.3915 0.0000
vt 0.1400 0.4005 0.0000
vt 0.1662 0.4005 0.0000
vt 0.1909 0.3915 0.0000
vt 0.2110 0.3746 0.0000
vt 0.2241 0.3519 0.0000
vt 0.2951 0.2744 0.0000
vt 0.3043 0.3260 0.0000
vt 0.2689 0.2289 0.0000
vt 0.2287 0.1952 0.0000
vt 0.1794 0.1772 0.0000
vt 0.1269 0.1772 0.0000
vt 0.0776 0.1952 0.0000
vt 0.0374 0.2289 0.0000
vt 0.0111 0.2744 0.0000
vt 0.0020 0.3260 0.0000
vt 0.0111 0.3777 0.0000
vt 0.0374 0.4232 0.0000
vt 0.0776 0.4569 0.0000
vt 0.1269 0.4749 0.0000
vt 0.1794 0.4749 0.0000
vt 0.2287 0.4569 0.0000
vt 0.2689 0.4232 0.0000
vt 0.2951 0.3777 0.0000
vt 0.3696 0.2612 0.0000
vt 0.3787 0.3129 0.0000
vt 0.2860 0.2227 0.0000
vt 0.3604 0.2096 0.0000
vt 0.2769 0.1710 0.0000
vt 0.3513 0.1579 0.0000
vt 0.2678 0.1193 0.0000
vt 0.3422 0.1062 0.0000
vt 0.2587 0.0676 0.0000
vt 0.3331 0.0545 0.0000
vt 0.4227 0.9980 0.0000
vt 0.4136 0.9463 0.0000
vt 0.4880 0.9332 0.0000
vt 0.4972 0.9849 0.0000
vt 0.4045 0.8946 0.0000
vt 0.4789 0.8815 0.0000
vt 0.3954 0.8429 0.0000
vt 0.4698 0.8298 0.0000
vt 0.3863 0.7912 0.0000
vt 0.4607 0.7781 0.0000
vt 0.3772 0.7396 0.0000
vt 0.4516 0.7264 0.0000
vt 0.3681 0.6879 0.0000
vt 0.4425 0.6747 0.0000
vt 0.3589 0.6362 0.0000
vt 0.4334 0.6231 0.0000
vt 0.3498 0.5845 0.0000
vt 0.4242 0.5714 0.0000
vt 0.3407 0.5328 0.0000
vt 0.4151 0.5197 0.0000
vt 0.3316 0.4811 0.0000
vt 0.4060 0.4680 0.0000
vt 0.3225 0.4294 0.0000
vt 0.3969 0.4163 0.0000
vt 0.3134 0.3777 0.0000
vt 0.3878 0.3646 0.0000
vt 0.4440 0.2481 0.0000
vt 0.4531 0.2998 0.0000
vt 0.4349 0.1964 0.0000
vt 0.4257 0.1447 0.0000
vt 0.4166 0.0931 0.0000
vt 0.4075 0.0414 0.0000
vt 0.5625 0.9201 0.0000
vt 0.5716 0.9718 0.0000
vt 0.5533 0.8684 0.0000
vt 0.5442 0.8167 0.0000
vt 0.5351 0.7650 0.0000
vt 0.5260 0.7133 0.0000
vt 0.5169 0.6616 0.0000
vt 0.5078 0.6099 0.0000
vt 0.4987 0.5582 0.0000
vt 0.4895 0.5066 0.0000
vt 0.4804 0.4549 0.0000
vt 0.4713 0.4032 0.0000
vt 0.4622 0.3515 0.0000
vt 0.5184 0.2350 0.0000
vt 0.5275 0.2867 0.0000
vt 0.5093 0.1833 0.0000
vt 0.5002 0.1316 0.0000
vt 0.4910 0.0799 0.0000
vt 0.4819 0.0282 0.0000
vt 0.6369 0.9069 0.0000
vt 0.6460 0.9586 0.0000
vt 0.6278 0.8553 0.0000
vt 0.6186 0.8036 0.0000
vt 0.6095 0.7519 0.0000
vt 0.6004 0.7002 0.0000
vt 0.5913 0.6485 0.0000
vt 0.5822 0.5968 0.0000
vt 0.5731 0.5451 0.0000
vt 0.5640 0.4934 0.0000
vt 0.5548 0.4418 0.0000
vt 0.5457 0.3901 0.0000
vt 0.5366 0.3384 0.0000
vt 0.5928 0.2219 0.0000
vt 0.6019 0.2736 0.0000
vt 0.5837 0.1702 0.0000
vt 0.5746 0.1185 0.0000
vt 0.5655 0.0668 0.0000
vt 0.5563 0.0151 0.0000
vt 0.7113 0.8938 0.0000
vt 0.7204 0.9455 0.0000
vt 0.7022 0.8421 0.0000
vt 0.6931 0.7904 0.0000
vt 0.6839 0.7388 0.0000
vt 0.6748 0.6871 0.0000
vt 0.6657 0.6354 0.0000
vt 0.6566 0.5837 0.0000
vt 0.6475 0.5320 0.0000
vt 0.6384 0.4803 0.0000
vt 0.6293 0.4286 0.0000
vt 0.6201 0.3769 0.0000
vt 0.6110 0.3253 0.0000
vt 0.6672 0.2088 0.0000
vt 0.6763 0.2604 0.0000
vt 0.6581 0.1571 0.0000
vt 0.6490 0.1054 0.0000
vt 0.6399 0.0537 0.0000
vt 0.6308 0.0020 0.0000
vt 0.7857 0.8807 0.0000
vt 0.7948 0.9324 0.0000
vt 0.7766 0.8290 0.0000
vt 0.7675 0.7773 0.0000
vt 0.7584 0.7256 0.0000
vt 0.7492 0.6740 0.0000
vt 0.7401 0.6223 0.0000
vt 0.7310 0.5706 0.0000
vt 0.7219 0.5189 0.0000
vt 0.7128 0.4672 0.0000
vt 0.7037 0.4155 0.0000
vt 0.6946 0.3638 0.0000
vt 0.6854 0.3121 0.0000
vt 0.7428 0.2088 0.0000
vt 0.7473 0.2346 0.0000
vt 0.6763 0.1571 0.0000
vt 0.7473 0.1829 0.0000
vt 0.7026 0.1116 0.0000
vt 0.7605 0.1602 0.0000
vt 0.7428 0.0779 0.0000
vt 0.7806 0.1433 0.0000
vt 0.7921 0.0599 0.0000
vt 0.8052 0.1343 0.0000
vt 0.8446 0.0599 0.0000
vt 0.8315 0.1343 0.0000
vt 0.8939 0.0779 0.0000
vt 0.8561 0.1433 0.0000
vt 0.9341 0.1116 0.0000
vt 0.8762 0.1602 0.0000
vt 0.9604 0.1571 0.0000
vt 0.8894 0.1829 0.0000
vt 0.9695 0.2088 0.0000
vt 0.8939 0.2088 0.0000
vt 0.9604 0.2604 0.0000
vt 0.8894 0.2346 0.0000
vt 0.9341 0.3059 0.0000
vt 0.8762 0.2573 0.0000
vt 0.8939 0.3396 0.0000
vt 0.8561 0.2742 0.0000
vt 0.8446 0.3576 0.0000
vt 0.8315 0.2832 0.0000
vt 0.7921 0.3576 0.0000
vt 0.8052 0.2832 0.0000
vt 0.7428 0.3396 0.0000
vt 0.7806 0.2742 0.0000
vt 0.7026 0.3059 0.0000
vt 0.7605 0.2573 0.0000
vt 0.8183 0.2088 0.0000
# 184 texture coords

g Cylinder001
usemtl Material__26
f 1/1/1 2/2/1 3/3/1 
f 1/1/1 4/4/1 2/2/1 
f 1/1/1 5/5/1 4/4/1 
f 1/1/1 6/6/1 5/5/1 
f 1/1/1 7/7/1 6/6/1 
f 1/1/1 8/8/1 7/7/1 
f 1/1/1 9/9/1 8/8/1 
f 1/1/1 10/10/1 9/9/1 
f 1/1/1 11/11/1 10/10/1 
f 1/1/1 12/12/1 11/11/1 
f 1/1/1 13/13/1 12/12/1 
f 1/1/1 14/14/1 13/13/1 
f 1/1/1 15/15/1 14/14/1 
f 1/1/1 16/16/1 15/15/1 
f 1/1/1 17/17/1 16/16/1 
f 1/1/1 18/18/1 17/17/1 
f 1/1/1 19/19/1 18/18/1 
f 1/1/1 3/3/1 19/19/1 
f 3/3/1 2/2/1 20/20/2 21/21/3 
f 2/2/1 4/4/1 22/22/4 20/20/2 
f 4/4/1 5/5/1 23/23/5 22/22/4 
f 5/5/1 6/6/1 24/24/6 23/23/5 
f 6/6/1 7/7/1 25/25/7 24/24/6 
f 7/7/1 8/8/1 26/26/8 25/25/7 
f 8/8/1 9/9/1 27/27/9 26/26/8 
f 9/9/1 10/10/1 28/28/10 27/27/9 
f 10/10/1 11/11/1 29/29/11 28/28/10 
f 11/11/1 12/12/1 30/30/12 29/29/11 
f 12/12/1 13/13/1 31/31/13 30/30/12 
f 13/13/1 14/14/1 32/32/14 31/31/13 
f 14/14/1 15/15/1 33/33/15 32/32/14 
f 15/15/1 16/16/1 34/34/16 33/33/15 
f 16/16/1 17/17/1 35/35/17 34/34/16 
f 17/17/1 18/18/1 36/36/18 35/35/17 
f 18/18/1 19/19/1 37/37/19 36/36/18 
f 19/19/1 3/3/1 21/21/3 37/37/19 
f 21/21/3 20/20/2 38/38/20 39/39/21 
f 20/20/2 22/40/4 40/41/22 38/38/20 
f 22/40/4 23/42/5 41/43/23 40/41/22 
f 23/42/5 24/44/6 42/45/24 41/43/23 
f 24/44/6 25/46/7 43/47/25 42/45/24 
f 25/48/7 26/49/8 44/50/26 43/51/25 
f 26/49/8 27/52/9 45/53/27 44/50/26 
f 27/52/9 28/54/10 46/55/28 45/53/27 
f 28/54/10 29/56/11 47/57/29 46/55/28 
f 29/56/11 30/58/12 48/59/30 47/57/29 
f 30/58/12 31/60/13 49/61/31 48/59/30 
f 31/60/13 32/62/14 50/63/32 49/61/31 
f 32/62/14 33/64/15 51/65/33 50/63/32 
f 33/64/15 34/66/16 52/67/34 51/65/33 
f 34/66/16 35/68/17 53/69/35 52/67/34 
f 35/68/17 36/70/18 54/71/36 53/69/35 
f 36/70/18 37/72/19 55/73/37 54/71/36 
f 37/72/19 21/21/3 39/39/21 55/73/37 
f 39/39/21 38/38/20 56/74/20 57/75/21 
f 38/38/20 40/41/22 58/76/22 56/74/20 
f 40/41/22 41/43/23 59/77/23 58/76/22 
f 41/43/23 42/45/24 60/78/24 59/77/23 
f 42/45/24 43/47/25 61/79/25 60/78/24 
f 43/51/25 44/50/26 62/80/26 61/81/25 
f 44/50/26 45/53/27 63/82/27 62/80/26 
f 45/53/27 46/55/28 64/83/28 63/82/27 
f 46/55/28 47/57/29 65/84/29 64/83/28 
f 47/57/29 48/59/30 66/85/30 65/84/29 
f 48/59/30 49/61/31 67/86/31 66/85/30 
f 49/61/31 50/63/32 68/87/32 67/86/31 
f 50/63/32 51/65/33 69/88/33 68/87/32 
f 51/65/33 52/67/34 70/89/34 69/88/33 
f 52/67/34 53/69/35 71/90/35 70/89/34 
f 53/69/35 54/71/36 72/91/36 71/90/35 
f 54/71/36 55/73/37 73/92/37 72/91/36 
f 55/73/37 39/39/21 57/75/21 73/92/37 
f 57/75/21 56/74/20 74/93/20 75/94/21 
f 56/74/20 58/76/22 76/95/22 74/93/20 
f 58/76/22 59/77/23 77/96/23 76/95/22 
f 59/77/23 60/78/24 78/97/24 77/96/23 
f 60/78/24 61/79/25 79/98/25 78/97/24 
f 61/81/25 62/80/26 80/99/26 79/100/25 
f 62/80/26 63/82/27 81/101/27 80/99/26 
f 63/82/27 64/83/28 82/102/28 81/101/27 
f 64/83/28 65/84/29 83/103/29 82/102/28 
f 65/84/29 66/85/30 84/104/30 83/103/29 
f 66/85/30 67/86/31 85/105/31 84/104/30 
f 67/86/31 68/87/32 86/106/32 85/105/31 
f 68/87/32 69/88/33 87/107/33 86/106/32 
f 69/88/33 70/89/34 88/108/34 87/107/33 
f 70/89/34 71/90/35 89/109/35 88/108/34 
f 71/90/35 72/91/36 90/110/36 89/109/35 
f 72/91/36 73/92/37 91/111/37 90/110/36 
f 73/92/37 57/75/21 75/94/21 91/111/37 
f 75/94/21 74/93/20 92/112/20 93/113/21 
f 74/93/20 76/95/22 94/114/22 92/112/20 
f 76/95/22 77/96/23 95/115/23 94/114/22 
f 77/96/23 78/97/24 96/116/24 95/115/23 
f 78/97/24 79/98/25 97/117/25 96/116/24 
f 79/100/25 80/99/26 98/118/26 97/119/25 
f 80/99/26 81/101/27 99/120/27 98/118/26 
f 81/101/27 82/102/28 100/121/28 99/120/27 
f 82/102/28 83/103/29 101/122/29 100/121/28 
f 83/103/29 84/104/30 102/123/30 101/122/29 
f 84/104/30 85/105/31 103/124/31 102/123/30 
f 85/105/31 86/106/32 104/125/32 103/124/31 
f 86/106/32 87/107/33 105/126/33 104/125/32 
f 87/107/33 88/108/34 106/127/34 105/126/33 
f 88/108/34 89/109/35 107/128/35 106/127/34 
f 89/109/35 90/110/36 108/129/36 107/128/35 
f 90/110/36 91/111/37 109/130/37 108/129/36 
f 91/111/37 75/94/21 93/113/21 109/130/37 
f 93/113/21 92/112/20 110/131/38 111/132/39 
f 92/112/20 94/114/22 112/133/40 110/131/38 
f 94/114/22 95/115/23 113/134/41 112/133/40 
f 95/115/23 96/116/24 114/135/42 113/134/41 
f 96/116/24 97/117/25 115/136/43 114/135/42 
f 97/119/25 98/118/26 116/137/44 115/138/43 
f 98/118/26 99/120/27 117/139/45 116/137/44 
f 99/120/27 100/121/28 118/140/46 117/139/45 
f 100/121/28 101/122/29 119/141/47 118/140/46 
f 101/122/29 102/123/30 120/142/48 119/141/47 
f 102/123/30 103/124/31 121/143/49 120/142/48 
f 103/124/31 104/125/32 122/144/50 121/143/49 
f 104/125/32 105/126/33 123/145/51 122/144/50 
f 105/126/33 106/127/34 124/146/52 123/145/51 
f 106/127/34 107/128/35 125/147/53 124/146/52 
f 107/128/35 108/129/36 126/148/54 125/147/53 
f 108/129/36 109/130/37 127/149/55 126/148/54 
f 109/130/37 93/113/21 111/132/39 127/149/55 
f 111/132/39 110/131/38 128/150/56 129/151/56 
f 110/131/38 112/152/40 130/153/56 128/150/56 
f 112/152/40 113/154/41 131/155/56 130/153/56 
f 113/154/41 114/156/42 132/157/56 131/155/56 
f 114/156/42 115/158/43 133/159/56 132/157/56 
f 115/158/43 116/160/44 134/161/56 133/159/56 
f 116/160/44 117/162/45 135/163/56 134/161/56 
f 117/162/45 118/164/46 136/165/56 135/163/56 
f 118/164/46 119/166/47 137/167/56 136/165/56 
f 119/166/47 120/168/48 138/169/56 137/167/56 
f 120/168/48 121/170/49 139/171/56 138/169/56 
f 121/170/49 122/172/50 140/173/56 139/171/56 
f 122/172/50 123/174/51 141/175/56 140/173/56 
f 123/174/51 124/176/52 142/177/56 141/175/56 
f 124/176/52 125/178/53 143/179/56 142/177/56 
f 125/178/53 126/180/54 144/181/56 143/179/56 
f 126/180/54 127/182/55 145/183/56 144/181/56 
f 127/182/55 111/132/39 129/151/56 145/183/56 
f 146/184/56 129/151/56 128/150/56 
f 146/184/56 128/150/56 130/153/56 
f 146/184/56 130/153/56 131/155/56 
f 146/184/56 131/155/56 132/157/56 
f 146/184/56 132/157/56 133/159/56 
f 146/184/56 133/159/56 134/161/56 
f 146/184/56 134/161/56 135/163/56 
f 146/184/56 135/163/56 136/165/56 
f 146/184/56 136/165/56 137/167/56 
f 146/184/56 137/167/56 138/169/56 
f 146/184/56 138/169/56 139/171/56 
f 146/184/56 139/171/56 140/173/56 
f 146/184/56 140/173/56 141/175/56 
f 146/184/56 141/175/56 142/177/56 
f 146/184/56 142/177/56 143/179/56 
f 146/184/56 143/179/56 144/181/56 
f 146/184/56 144/181/56 145/183/56 
f 146/184/56 145/183/56 129/151/56 
# 126 polygons - 36 triangles

