# 3ds Max Wavefront OBJ Exporter v0.97b - (c)2007 guruware
# File Created: 22.05.2014 18:49:37

mtllib shelf v2.mtl

#
# object Box002
#

v  -48.8867 1.0873 4.7462
v  -48.8867 1.0873 -20.7738
v  14.6053 1.0873 -20.7738
v  14.6053 1.0873 4.7462
v  -48.8867 82.7428 4.7462
v  14.6053 82.7428 4.7462
v  14.6053 82.7428 -20.7738
v  -48.8867 82.7428 -20.7738
v  -45.3580 79.6424 4.7462
v  11.7259 79.6424 4.7462
v  11.7259 5.6822 4.7462
v  -45.3580 5.6822 4.7462
v  11.7259 5.6822 -19.2647
v  11.7259 79.6424 -19.2647
v  -45.3580 79.6424 -19.2647
v  -45.3580 5.6822 -19.2647
# 16 vertices

vn 0.0000 -1.0000 -0.0000
vn 0.0000 1.0000 -0.0000
vn 1.0000 0.0000 -0.0000
vn 0.0000 0.0000 -1.0000
vn -1.0000 0.0000 -0.0000
vn 0.0000 0.0000 1.0000
vn -0.0000 0.0000 1.0000
vn 0.0000 -0.0000 1.0000
vn -0.0000 -0.0000 1.0000
# 9 vertex normals

vt 1.0000 0.0000 0.0000
vt 1.0000 1.0000 0.0000
vt 0.0000 1.0000 0.0000
vt 0.0000 0.0000 0.0000
vt 0.0556 0.9620 0.0000
vt 0.9546 0.9620 0.0000
vt 0.9546 0.0563 0.0000
vt 0.0556 0.0563 0.0000
vt 0.1294 0.0000 0.0000
vt 0.1294 1.0000 0.0000
vt 1.0000 0.1294 0.0000
vt 0.0000 0.1294 0.0000
vt 0.8706 1.0000 0.0000
vt 0.8706 0.0000 0.0000
# 14 texture coords

g Box002
usemtl Material__3
s 2
f 1/1/1 2/2/1 3/3/1 4/4/1 
s 4
f 5/4/2 6/1/2 7/2/2 8/3/2 
s 16
f 4/4/3 3/1/3 7/2/3 6/3/3 
s 32
f 3/4/4 2/1/4 8/2/4 7/3/4 
s 64
f 2/4/5 1/1/5 5/2/5 8/3/5 
s 8
f 6/2/6 9/5/7 10/6/6 11/7/8 
f 4/1/8 6/2/6 11/7/8 12/8/9 
f 1/4/9 4/1/8 12/8/9 5/3/7 
f 5/3/7 12/8/9 9/5/7 6/2/6 
s 32
f 13/4/6 14/3/6 15/2/6 16/1/6 
s 16
f 11/9/5 10/10/5 14/2/5 13/1/5 
s 2
f 16/2/2 12/11/2 11/12/2 13/3/2 
s 64
f 15/3/3 9/13/3 12/14/3 16/4/3 
s 4
f 14/2/1 10/11/1 9/12/1 15/3/1 
# 14 polygons

#
# object Box003
#

v  -47.2668 40.2530 3.7300
v  -47.2668 40.2530 -18.5673
v  12.8509 40.2530 -18.5673
v  12.8509 40.2530 3.7300
v  -47.2668 43.4645 3.7300
v  12.8509 43.4645 3.7300
v  12.8509 43.4645 -18.5673
v  -47.2668 43.4645 -18.5673
# 8 vertices

vn 0.0000 -1.0000 -0.0000
vn 0.0000 1.0000 -0.0000
vn 0.0000 0.0000 1.0000
vn 1.0000 0.0000 -0.0000
vn 0.0000 0.0000 -1.0000
vn -1.0000 0.0000 -0.0000
# 6 vertex normals

vt 1.0000 0.0000 0.0000
vt 1.0000 1.0000 0.0000
vt 0.0000 1.0000 0.0000
vt 0.0000 0.0000 0.0000
# 4 texture coords

g Box003
usemtl Material__3
s 2
f 17/15/10 18/16/10 19/17/10 20/18/10 
s 4
f 21/18/11 22/15/11 23/16/11 24/17/11 
s 8
f 17/18/12 20/15/12 22/16/12 21/17/12 
s 16
f 20/18/13 19/15/13 23/16/13 22/17/13 
s 32
f 19/18/14 18/15/14 24/16/14 23/17/14 
s 64
f 18/18/15 17/15/15 21/16/15 24/17/15 
# 6 polygons

