# 3ds Max Wavefront OBJ Exporter v0.97b - (c)2007 guruware
# File Created: 03.06.2014 01:48:52

mtllib star.mtl

#
# object NGon001
#

v  2.0008 18.4571 -3.6977
v  2.0008 11.4237 -5.9830
v  2.0008 7.0768 -0.0000
v  2.0008 18.4571 3.6977
v  2.0008 11.4237 5.9830
v  -2.0008 18.4571 3.6977
v  -2.0008 11.4237 5.9830
v  -2.0008 7.0768 -0.0000
v  -2.0008 18.4571 -3.6977
v  -2.0008 11.4237 -5.9830
v  -2.0008 24.1473 1.8488
v  2.0008 24.1473 1.8488
v  2.0008 24.1473 -1.8488
v  -2.0008 24.1473 -1.8488
v  -2.0008 18.4571 -9.6807
v  2.0008 18.4571 -9.6807
v  2.0008 14.9404 -10.8233
v  -2.0008 14.9404 -10.8233
v  -2.0008 5.7336 -7.8318
v  2.0008 5.7336 -7.8318
v  2.0008 3.5601 -4.8403
v  -2.0008 3.5601 -4.8403
v  -2.0008 3.5601 4.8403
v  2.0008 3.5601 4.8403
v  2.0008 5.7336 7.8318
v  -2.0008 5.7336 7.8318
v  -2.0008 14.9404 10.8233
v  2.0008 14.9404 10.8233
v  2.0008 18.4571 9.6807
v  -2.0008 18.4571 9.6807
v  -1.1116 17.6340 -13.1302
v  -1.5006 17.9277 -11.7906
v  -2.0008 16.3462 -9.1669
v  -1.5006 16.6090 -12.2191
v  -1.1116 2.1985 8.1149
v  -1.5006 2.7482 6.8585
v  -2.0008 5.5699 5.6654
v  -1.5006 3.5633 7.9803
v  -2.0008 16.3462 9.1669
v  -1.5006 17.9277 11.7906
v  -1.1116 17.6340 13.1302
v  -1.5006 16.6090 12.2191
v  -1.1116 27.1736 -0.0000
v  -1.5006 25.9904 0.6933
v  -2.0008 23.0063 -0.0000
v  -1.5006 25.9904 -0.6933
v  -2.0008 5.5699 -5.6654
v  -1.5006 2.7482 -6.8585
v  -1.1116 2.1985 -8.1149
v  -1.5006 3.5633 -7.9803
v  1.1116 2.1985 -8.1149
v  1.5006 2.7482 -6.8585
v  2.0008 5.5699 -5.6654
v  1.5006 3.5633 -7.9803
v  1.1116 17.6340 13.1302
v  1.5006 17.9277 11.7906
v  2.0008 16.3462 9.1669
v  1.5006 16.6090 12.2191
v  1.1116 17.6340 -13.1302
v  1.5006 16.6090 -12.2191
v  2.0008 16.3462 -9.1669
v  1.5006 17.9277 -11.7906
v  2.0008 5.5699 5.6654
v  1.5006 2.7482 6.8585
v  1.1116 2.1985 8.1149
v  1.5006 3.5633 7.9803
v  2.0008 23.0063 -0.0000
v  1.5006 25.9904 0.6933
v  1.1116 27.1736 -0.0000
v  1.5006 25.9904 -0.6933
v  -0.0000 26.9851 0.9244
v  0.0000 28.4040 -0.0000
v  0.0000 26.9851 -0.9244
v  0.0000 18.4549 -12.6652
v  0.0000 18.0142 -14.3003
v  -0.0000 16.6965 -13.2365
v  -0.0000 2.8944 -8.7520
v  0.0000 1.2031 -8.8381
v  0.0000 1.8077 -7.2562
v  0.0000 1.8077 7.2562
v  0.0000 1.2031 8.8381
v  0.0000 2.8944 8.7520
v  0.0000 16.6965 13.2365
v  0.0000 18.0142 14.3003
v  -0.0000 18.4549 12.6652
# 85 vertices

vn -0.8658 -0.4048 0.2941
vn -0.8658 0.1546 0.4758
vn -0.8658 0.5003 -0.0000
vn -0.8658 -0.4048 -0.2941
vn -0.8658 0.1546 -0.4758
vn 0.8658 -0.4048 -0.2941
vn 0.8658 0.1546 -0.4758
vn 0.8658 0.5003 -0.0000
vn 0.8658 -0.4048 0.2941
vn 0.8658 0.1546 0.4758
vn 0.7305 -0.3165 -0.6051
vn -0.7305 -0.3165 -0.6051
vn -0.7305 -0.3165 0.6051
vn 0.7305 -0.3165 0.6051
vn 0.7305 -0.6733 0.1140
vn -0.7305 -0.6733 0.1140
vn -0.7305 0.4777 0.4880
vn 0.7305 0.4777 0.4880
vn 0.7305 -0.0996 0.6756
vn -0.7305 -0.0996 0.6756
vn -0.7305 0.6117 -0.3035
vn 0.7305 0.6117 -0.3035
vn 0.7305 0.6117 0.3035
vn -0.7305 0.6117 0.3035
vn -0.7305 -0.0996 -0.6756
vn 0.7305 -0.0996 -0.6756
vn 0.7305 0.4777 -0.4880
vn -0.7305 0.4777 -0.4880
vn -0.7305 -0.6733 -0.1140
vn 0.7305 -0.6733 -0.1140
vn 0.7786 -0.1939 0.5968
vn 0.8478 -0.4152 0.3298
vn 0.9980 -0.0197 0.0607
vn 0.8478 0.1421 0.5109
vn 0.7786 0.5076 -0.3688
vn 0.8478 0.5298 -0.0227
vn 0.9980 0.0517 -0.0375
vn 0.8478 0.1853 -0.4968
vn 0.9980 -0.0197 -0.0607
vn 0.8478 -0.4152 -0.3298
vn 0.7786 -0.1939 -0.5968
vn 0.8478 0.1421 -0.5109
vn 0.7786 -0.6275 0.0000
vn 0.8478 -0.4419 -0.2930
vn 0.9980 -0.0639 0.0000
vn 0.8478 -0.4419 0.2930
vn 0.9980 0.0517 0.0375
vn 0.8478 0.5298 0.0227
vn 0.7786 0.5076 0.3688
vn 0.8478 0.1853 0.4968
vn -0.7786 0.5076 0.3688
vn -0.8478 0.5298 0.0227
vn -0.9980 0.0517 0.0375
vn -0.8478 0.1853 0.4968
vn -0.7786 -0.1939 -0.5968
vn -0.8478 -0.4152 -0.3298
vn -0.9980 -0.0197 -0.0607
vn -0.8478 0.1421 -0.5109
vn -0.7786 -0.1939 0.5968
vn -0.8478 0.1421 0.5109
vn -0.9980 -0.0197 0.0607
vn -0.8478 -0.4152 0.3298
vn -0.9980 0.0517 -0.0375
vn -0.8478 0.5298 -0.0227
vn -0.7786 0.5076 -0.3688
vn -0.8478 0.1853 -0.4968
vn -0.9980 -0.0639 -0.0000
vn -0.8478 -0.4419 -0.2930
vn -0.7786 -0.6275 0.0000
vn -0.8478 -0.4419 0.2930
vn 0.0000 -0.5392 -0.8421
vn 0.0000 -1.0000 -0.0000
vn 0.0000 -0.5392 0.8421
vn -0.0000 -0.9676 0.2526
vn -0.0000 -0.3090 0.9511
vn 0.0000 0.6343 0.7731
vn 0.0000 -0.0587 0.9983
vn -0.0000 0.8090 0.5878
vn 0.0000 0.9313 -0.3643
vn 0.0000 0.9313 0.3643
vn -0.0000 0.8090 -0.5878
vn 0.0000 -0.0587 -0.9983
vn -0.0000 0.6343 -0.7731
vn -0.0000 -0.3090 -0.9511
vn 0.0000 -0.9676 -0.2526
# 85 vertex normals

g NGon001
usemtl Material__27
s 2
f 1//1 2//2 3//3 4//4 
f 5//5 4//4 3//3 
f 6//6 7//7 8//8 9//9 
f 9//9 8//8 10//10 
f 11//11 12//12 4//4 6//6 
f 9//9 1//1 13//13 14//14 
f 15//15 16//16 1//1 9//9 
f 10//10 2//2 17//17 18//18 
f 19//19 20//20 2//2 10//10 
f 8//8 3//3 21//21 22//22 
f 23//23 24//24 3//3 8//8 
f 7//7 5//5 25//25 26//26 
f 5//5 7//7 27//27 28//28 
f 29//29 30//30 6//6 4//4 
f 31//31 32//32 33//33 34//34 
f 15//15 9//9 33//33 
f 32//32 15//15 33//33 
f 9//9 10//10 33//33 
f 10//10 18//18 33//33 
f 18//18 34//34 33//33 
f 35//35 36//36 37//37 38//38 
f 23//23 8//8 37//37 
f 36//36 23//23 37//37 
f 8//8 7//7 37//37 
f 7//7 26//26 37//37 
f 26//26 38//38 37//37 
f 6//6 30//30 39//39 
f 30//30 40//40 39//39 
f 41//41 42//42 39//39 40//40 
f 27//27 7//7 39//39 
f 42//42 27//27 39//39 
f 7//7 6//6 39//39 
f 43//43 44//44 45//45 46//46 
f 11//11 6//6 45//45 
f 44//44 11//11 45//45 
f 6//6 9//9 45//45 
f 9//9 14//14 45//45 
f 14//14 46//46 45//45 
f 10//10 8//8 47//47 
f 8//8 22//22 47//47 
f 22//22 48//48 47//47 
f 49//49 50//50 47//47 48//48 
f 19//19 10//10 47//47 
f 50//50 19//19 47//47 
f 51//51 52//52 53//53 54//54 
f 21//21 3//3 53//53 
f 52//52 21//21 53//53 
f 3//3 2//2 53//53 
f 2//2 20//20 53//53 
f 20//20 54//54 53//53 
f 55//55 56//56 57//57 58//58 
f 29//29 4//4 57//57 
f 56//56 29//29 57//57 
f 4//4 5//5 57//57 
f 5//5 28//28 57//57 
f 28//28 58//58 57//57 
f 59//59 60//60 61//61 62//62 
f 17//17 2//2 61//61 
f 60//60 17//17 61//61 
f 2//2 1//1 61//61 
f 1//1 16//16 61//61 
f 16//16 62//62 61//61 
f 3//3 24//24 63//63 
f 24//24 64//64 63//63 
f 65//65 66//66 63//63 64//64 
f 25//25 5//5 63//63 
f 66//66 25//25 63//63 
f 5//5 3//3 63//63 
f 4//4 12//12 67//67 
f 12//12 68//68 67//67 
f 69//69 70//70 67//67 68//68 
f 13//13 1//1 67//67 
f 70//70 13//13 67//67 
f 1//1 4//4 67//67 
f 11//11 44//44 71//71 
f 43//43 72//72 71//71 44//44 
f 69//69 68//68 71//71 72//72 
f 12//12 11//11 71//71 
f 68//68 12//12 71//71 
f 13//13 70//70 73//73 
f 69//69 72//72 73//73 70//70 
f 43//43 46//46 73//73 72//72 
f 14//14 13//13 73//73 
f 46//46 14//14 73//73 
f 15//15 32//32 74//74 
f 31//31 75//75 74//74 32//32 
f 59//59 62//62 74//74 75//75 
f 16//16 15//15 74//74 
f 62//62 16//16 74//74 
f 31//31 34//34 76//76 75//75 
f 18//18 17//17 76//76 
f 34//34 18//18 76//76 
f 17//17 60//60 76//76 
f 59//59 75//75 76//76 60//60 
f 19//19 50//50 77//77 
f 49//49 78//78 77//77 50//50 
f 51//51 54//54 77//77 78//78 
f 20//20 19//19 77//77 
f 54//54 20//20 77//77 
f 21//21 52//52 79//79 
f 51//51 78//78 79//79 52//52 
f 49//49 48//48 79//79 78//78 
f 22//22 21//21 79//79 
f 48//48 22//22 79//79 
f 23//23 36//36 80//80 
f 35//35 81//81 80//80 36//36 
f 65//65 64//64 80//80 81//81 
f 24//24 23//23 80//80 
f 64//64 24//24 80//80 
f 25//25 66//66 82//82 
f 65//65 81//81 82//82 66//66 
f 35//35 38//38 82//82 81//81 
f 26//26 25//25 82//82 
f 38//38 26//26 82//82 
f 55//55 58//58 83//83 84//84 
f 28//28 27//27 83//83 
f 58//58 28//28 83//83 
f 27//27 42//42 83//83 
f 41//41 84//84 83//83 42//42 
f 29//29 56//56 85//85 
f 55//55 84//84 85//85 56//56 
f 41//41 40//40 85//85 84//84 
f 30//30 29//29 85//85 
f 40//40 30//30 85//85 
# 42 polygons - 82 triangles

